<svg xmlns="http://www.w3.org/2000/svg" xmlns:xlink="http://www.w3.org/1999/xlink" contentStyleType="text/css" data-diagram-type="DESCRIPTION" height="1075px" preserveAspectRatio="none" style="width:798px;height:1075px;background:#FFFFFF;" version="1.1" viewBox="0 0 798 1075" width="798px" zoomAndPan="magnify"><?plantuml 1.2026.5?><defs/><g><g class="title" data-source-line="1"><text fill="#000000" font-family="sans-serif" font-size="14" font-weight="700" lengthAdjust="spacing" textLength="388.0283" x="201.7008" y="22.9951">Use Case Diagram - Cross-Traffic System (M/M/1)</text></g><!--cluster M/M/1 Cross-Traffic Management System--><g class="cluster" data-qualified-name="M.M.1 Cross-Traffic Management System" data-source-line="10" id="ent0005"><rect fill="none" height="768" rx="2.5" ry="2.5" style="stroke:#181818;stroke-width:1;" width="587.51" x="196.92" y="86.2969"/><text fill="#000000" font-family="sans-serif" font-size="14" font-weight="700" lengthAdjust="spacing" textLength="324.2764" x="328.5368" y="101.292">M/M/1 Cross-Traffic Management System</text></g><!--entity UC1--><g class="entity" data-qualified-name="M.M.1 Cross-Traffic Management System.UC1" data-source-line="12" id="ent0006"><ellipse cx="337.5629" cy="348.2975" fill="#F1F1F1" rx="77.2529" ry="17.8506" style="stroke:#181818;stroke-width:0.5;"/><text fill="#000000" font-family="sans-serif" font-size="14" lengthAdjust="spacing" textLength="124.1543" x="275.4858" y="352.9459">Send V2V Beacon</text></g><!--entity UC2--><g class="entity" data-qualified-name="M.M.1 Cross-Traffic Management System.UC2" data-source-line="13" id="ent0007"><ellipse cx="337.5615" cy="139.2972" fill="#F1F1F1" rx="77.3015" ry="17.8603" style="stroke:#181818;stroke-width:0.5;"/><text fill="#000000" font-family="sans-serif" font-size="14" lengthAdjust="spacing" textLength="124.2705" x="275.4263" y="143.9456">Send V2I Request</text></g><!--entity UC3--><g class="entity" data-qualified-name="M.M.1 Cross-Traffic Management System.UC3" data-source-line="14" id="ent0008"><ellipse cx="337.5589" cy="208.2927" fill="#F1F1F1" rx="67.2789" ry="15.8558" style="stroke:#181818;stroke-width:0.5;"/><text fill="#000000" font-family="sans-serif" font-size="14" lengthAdjust="spacing" textLength="99.4355" x="287.8412" y="212.9411">Receive Grant</text></g><!--entity UC4--><g class="entity" data-qualified-name="M.M.1 Cross-Traffic Management System.UC4" data-source-line="15" id="ent0009"><ellipse cx="337.5613" cy="277.2971" fill="#F1F1F1" rx="78.2013" ry="18.0403" style="stroke:#181818;stroke-width:0.5;"/><text fill="#000000" font-family="sans-serif" font-size="14" lengthAdjust="spacing" textLength="126.417" x="274.3528" y="281.9456">Cross Intersection</text></g><!--entity UC5--><g class="entity" data-qualified-name="M.M.1 Cross-Traffic Management System.UC5" data-source-line="16" id="ent0010"><ellipse cx="669.8203" cy="177.2989" fill="#F1F1F1" rx="98.6103" ry="22.1221" style="stroke:#181818;stroke-width:0.5;"/><text fill="#000000" font-family="sans-serif" font-size="14" lengthAdjust="spacing" textLength="172.9902" x="583.3252" y="181.9474">Send Complete Message</text></g><!--entity UC6--><g class="entity" data-qualified-name="M.M.1 Cross-Traffic Management System.UC6" data-source-line="18" id="ent0011"><ellipse cx="669.8236" cy="665.3016" fill="#F1F1F1" rx="83.1736" ry="19.0347" style="stroke:#181818;stroke-width:0.5;"/><text fill="#000000" font-family="sans-serif" font-size="14" lengthAdjust="spacing" textLength="138.0996" x="600.7738" y="669.95">Check Traffic Phase</text></g><!--entity UC7--><g class="entity" data-qualified-name="M.M.1 Cross-Traffic Management System.UC7" data-source-line="19" id="ent0012"><ellipse cx="669.8218" cy="741.2972" fill="#F1F1F1" rx="98.2518" ry="22.0504" style="stroke:#181818;stroke-width:0.5;"/><text fill="#000000" font-family="sans-serif" font-size="14" lengthAdjust="spacing" textLength="172.1973" x="583.7231" y="745.9457">Check Single Server Slot</text></g><!--entity UC8--><g class="entity" data-qualified-name="M.M.1 Cross-Traffic Management System.UC8" data-source-line="20" id="ent0013"><ellipse cx="669.8199" cy="818.2969" fill="#F1F1F1" rx="86.7499" ry="19.75" style="stroke:#181818;stroke-width:0.5;"/><text fill="#000000" font-family="sans-serif" font-size="14" lengthAdjust="spacing" textLength="146.3438" x="596.648" y="822.9453">Check Route Conflict</text></g><!--entity UC9--><g class="entity" data-qualified-name="M.M.1 Cross-Traffic Management System.UC9" data-source-line="21" id="ent0014"><ellipse cx="337.5557" cy="823.3" fill="#F1F1F1" rx="65.4157" ry="15.4831" style="stroke:#181818;stroke-width:0.5;"/><text fill="#000000" font-family="sans-serif" font-size="14" lengthAdjust="spacing" textLength="94.5684" x="290.2715" y="827.9485">Grant or Wait</text></g><!--entity UC10--><g class="entity" data-qualified-name="M.M.1 Cross-Traffic Management System.UC10" data-source-line="23" id="ent0015"><ellipse cx="337.5561" cy="513.3001" fill="#F1F1F1" rx="100.5161" ry="22.5032" style="stroke:#181818;stroke-width:0.5;"/><text fill="#000000" font-family="sans-serif" font-size="14" lengthAdjust="spacing" textLength="177.1943" x="248.9589" y="517.9485">Verify Deadlock Freedom</text></g><!--entity UC11--><g class="entity" data-qualified-name="M.M.1 Cross-Traffic Management System.UC11" data-source-line="24" id="ent0016"><ellipse cx="337.5552" cy="592.2999" fill="#F1F1F1" rx="97.6652" ry="21.933" style="stroke:#181818;stroke-width:0.5;"/><text fill="#000000" font-family="sans-serif" font-size="14" lengthAdjust="spacing" textLength="170.8984" x="252.106" y="596.9483">Verify activeCount &lt;= 1</text></g><!--entity UC12--><g class="entity" data-qualified-name="M.M.1 Cross-Traffic Management System.UC12" data-source-line="25" id="ent0017"><ellipse cx="337.5599" cy="672.2928" fill="#F1F1F1" rx="102.3799" ry="22.876" style="stroke:#181818;stroke-width:0.5;"/><text fill="#000000" font-family="sans-serif" font-size="14" lengthAdjust="spacing" textLength="181.2891" x="246.9153" y="676.9413">Verify Vehicle Completion</text></g><!--entity UC13--><g class="entity" data-qualified-name="M.M.1 Cross-Traffic Management System.UC13" data-source-line="26" id="ent0018"><ellipse cx="337.5639" cy="428.2957" fill="#F1F1F1" rx="124.6439" ry="27.3288" style="stroke:#181818;stroke-width:0.5;"/><text fill="#000000" font-family="sans-serif" font-size="14" lengthAdjust="spacing" textLength="229.2363" x="222.9458" y="432.9441">Verify No Simultaneous Crossing</text></g><!--entity UC14--><g class="entity" data-qualified-name="M.M.1 Cross-Traffic Management System.UC14" data-source-line="28" id="ent0019"><ellipse cx="337.5591" cy="751.2987" fill="#F1F1F1" rx="95.4591" ry="21.4918" style="stroke:#181818;stroke-width:0.5;"/><text fill="#000000" font-family="sans-serif" font-size="14" lengthAdjust="spacing" textLength="165.9971" x="254.5606" y="755.9471">Map to FreeRTOS Tasks</text></g><!--entity Vehicle--><g class="entity" data-qualified-name="Vehicle" data-source-line="5" id="ent0001"><ellipse cx="77.9585" cy="178.6469" fill="#F1F1F1" rx="8" ry="8" style="stroke:#181818;stroke-width:0.5;"/><path d="M77.9585,186.6469 L77.9585,213.6469 M64.9585,194.6469 L90.9585,194.6469 M77.9585,213.6469 L64.9585,228.6469 M77.9585,213.6469 L90.9585,228.6469" fill="none" style="stroke:#181818;stroke-width:0.5;"/><text fill="#000000" font-family="sans-serif" font-size="14" lengthAdjust="spacing" textLength="143.917" x="6" y="243.142">Autonomous Vehicle</text></g><!--entity RSU--><g class="entity" data-qualified-name="RSU" data-source-line="6" id="ent0002"><ellipse cx="77.9622" cy="896.6469" fill="#F1F1F1" rx="8" ry="8" style="stroke:#181818;stroke-width:0.5;"/><path d="M77.9622,904.6469 L77.9622,931.6469 M64.9622,912.6469 L90.9622,912.6469 M77.9622,931.6469 L64.9622,946.6469 M77.9622,931.6469 L90.9622,946.6469" fill="none" style="stroke:#181818;stroke-width:0.5;"/><text fill="#000000" font-family="sans-serif" font-size="14" lengthAdjust="spacing" textLength="102.4844" x="26.72" y="961.142">RSU Controller</text></g><!--entity Verifier--><g class="entity" data-qualified-name="Verifier" data-source-line="7" id="ent0003"><ellipse cx="77.9598" cy="522.6469" fill="#F1F1F1" rx="8" ry="8" style="stroke:#181818;stroke-width:0.5;"/><path d="M77.9598,530.6469 L77.9598,557.6469 M64.9598,538.6469 L90.9598,538.6469 M77.9598,557.6469 L64.9598,572.6469 M77.9598,557.6469 L90.9598,572.6469" fill="none" style="stroke:#181818;stroke-width:0.5;"/><text fill="#000000" font-family="sans-serif" font-size="14" lengthAdjust="spacing" textLength="109.5596" x="23.18" y="587.142">UPPAAL Verifier</text></g><!--entity Student--><g class="entity" data-qualified-name="Student" data-source-line="8" id="ent0004"><ellipse cx="77.9557" cy="721.6469" fill="#F1F1F1" rx="8" ry="8" style="stroke:#181818;stroke-width:0.5;"/><path d="M77.9557,729.6469 L77.9557,756.6469 M64.9557,737.6469 L90.9557,737.6469 M77.9557,756.6469 L64.9557,771.6469 M77.9557,756.6469 L90.9557,771.6469" fill="none" style="stroke:#181818;stroke-width:0.5;"/><text fill="#000000" font-family="sans-serif" font-size="14" lengthAdjust="spacing" textLength="140.7314" x="7.59" y="786.142">Developer / Student</text></g><!--link Vehicle to UC1--><g class="link" data-entity-1="ent0001" data-entity-2="ent0006" data-link-type="dependency" data-source-line="31" id="lnk20"><path d="M110.04,246.8869 C130.24,269.4769 158.42,296.7369 188.92,313.2969 C213.22,326.4969 237.5253,333.7854 263.5253,338.9354" fill="none" id="Vehicle-to-UC1" style="stroke:#181818;stroke-width:1;"/><polygon fill="#181818" points="268.43,339.9069,260.3787,334.2344,263.5253,338.9354,258.8243,342.0819,268.43,339.9069" style="stroke:#181818;stroke-width:1;stroke-linejoin:miter;stroke-miterlimit:10;"/></g><!--link Vehicle to UC2--><g class="link" data-entity-1="ent0001" data-entity-2="ent0007" data-link-type="dependency" data-source-line="32" id="lnk21"><path d="M150.37,186.2769 C163.17,182.4969 176.42,178.6969 188.92,175.2969 C219.47,166.9969 248.9549,159.7203 276.8349,153.1103" fill="none" id="Vehicle-to-UC2" style="stroke:#181818;stroke-width:1;"/><polygon fill="#181818" points="281.7,151.9569,272.02,150.141,276.8349,153.1103,273.8655,157.9252,281.7,151.9569" style="stroke:#181818;stroke-width:1;stroke-linejoin:miter;stroke-miterlimit:10;"/></g><!--link Vehicle to UC3--><g class="link" data-entity-1="ent0001" data-entity-2="ent0008" data-link-type="dependency" data-source-line="33" id="lnk22"><path d="M150.37,208.2969 C187.75,208.2969 228.22,208.2969 264.88,208.2969" fill="none" id="Vehicle-to-UC3" style="stroke:#181818;stroke-width:1;"/><polygon fill="#181818" points="269.88,208.2969,260.88,204.2969,264.88,208.2969,260.88,212.2969,269.88,208.2969" style="stroke:#181818;stroke-width:1;stroke-linejoin:miter;stroke-miterlimit:10;"/></g><!--link Vehicle to UC4--><g class="link" data-entity-1="ent0001" data-entity-2="ent0009" data-link-type="dependency" data-source-line="34" id="lnk23"><path d="M150.37,230.3269 C163.17,234.0969 176.42,237.8969 188.92,241.2969 C219.21,249.5369 248.3853,256.7316 276.1353,263.3216" fill="none" id="Vehicle-to-UC4" style="stroke:#181818;stroke-width:1;"/><polygon fill="#181818" points="281,264.4769,273.1677,258.5056,276.1353,263.3216,271.3193,266.2892,281,264.4769" style="stroke:#181818;stroke-width:1;stroke-linejoin:miter;stroke-miterlimit:10;"/></g><!--link Vehicle to UC5--><g class="link" data-entity-1="ent0001" data-entity-2="ent0010" data-link-type="dependency" data-source-line="35" id="lnk24"><path d="M106.9,169.8769 C126.76,146.0369 155.71,117.5169 188.92,104.2969 C342.19,43.2969 537.0952,116.2044 622.4952,154.8744" fill="none" id="Vehicle-to-UC5" style="stroke:#181818;stroke-width:1;"/><polygon fill="#181818" points="627.05,156.9369,620.5013,149.5806,622.4952,154.8744,617.2014,156.8683,627.05,156.9369" style="stroke:#181818;stroke-width:1;stroke-linejoin:miter;stroke-miterlimit:10;"/></g><!--link RSU to UC6--><g class="link" data-entity-1="ent0002" data-entity-2="ent0011" data-link-type="dependency" data-source-line="37" id="lnk25"><path d="M129.36,923.0069 C237.5,914.8469 486.44,889.7769 541.2,829.2969 C580.42,785.9869 532.51,745.0769 571.2,701.2969 C580.54,690.7469 588.5996,685.1387 601.7596,679.8587" fill="none" id="RSU-to-UC6" style="stroke:#181818;stroke-width:1;"/><polygon fill="#181818" points="606.4,677.9969,596.5578,677.6358,601.7596,679.8587,599.5367,685.0605,606.4,677.9969" style="stroke:#181818;stroke-width:1;stroke-linejoin:miter;stroke-miterlimit:10;"/></g><!--link RSU to UC7--><g class="link" data-entity-1="ent0002" data-entity-2="ent0012" data-link-type="dependency" data-source-line="38" id="lnk26"><path d="M129.56,943.4269 C222.64,971.4369 422.32,1014.7369 541.2,917.2969 C589.08,878.0569 531.35,828.6569 571.2,781.2969 C579.75,771.1369 586.764,765.6519 598.904,759.9519" fill="none" id="RSU-to-UC7" style="stroke:#181818;stroke-width:1;"/><polygon fill="#181818" points="603.43,757.8269,593.5833,758.0312,598.904,759.9519,596.9833,765.2727,603.43,757.8269" style="stroke:#181818;stroke-width:1;stroke-linejoin:miter;stroke-miterlimit:10;"/></g><!--link RSU to UC8--><g class="link" data-entity-1="ent0002" data-entity-2="ent0013" data-link-type="dependency" data-source-line="39" id="lnk27"><path d="M129.56,964.8369 C144.93,974.4069 162.4,983.3469 179.92,988.2969 C334.44,1031.9569 397.57,1060.0769 541.2,988.2969 C604.92,956.4569 643.1436,880.6125 659.0636,842.9425" fill="none" id="RSU-to-UC8" style="stroke:#181818;stroke-width:1;"/><polygon fill="#181818" points="661.01,838.3369,653.822,845.0698,659.0636,842.9425,661.1909,848.1841,661.01,838.3369" style="stroke:#181818;stroke-width:1;stroke-linejoin:miter;stroke-miterlimit:10;"/></g><!--link RSU to UC9--><g class="link" data-entity-1="ent0002" data-entity-2="ent0014" data-link-type="dependency" data-source-line="40" id="lnk28"><path d="M129.61,891.8869 C145.25,882.3169 162.87,872.5669 179.92,865.2969 C214.11,850.7269 249.8093,841.1025 281.0993,834.1425" fill="none" id="RSU-to-UC9" style="stroke:#181818;stroke-width:1;"/><polygon fill="#181818" points="285.98,833.0569,276.3262,831.1065,281.0993,834.1425,278.0632,838.9156,285.98,833.0569" style="stroke:#181818;stroke-width:1;stroke-linejoin:miter;stroke-miterlimit:10;"/></g><!--link Verifier to UC10--><g class="link" data-entity-1="ent0003" data-entity-2="ent0015" data-link-type="dependency" data-source-line="42" id="lnk29"><path d="M132.96,544.1269 C167.78,538.8469 208.8163,532.635 248.2663,526.665" fill="none" id="Verifier-to-UC10" style="stroke:#181818;stroke-width:1;"/><polygon fill="#181818" points="253.21,525.9169,243.7128,523.3085,248.2663,526.665,244.9098,531.2185,253.21,525.9169" style="stroke:#181818;stroke-width:1;stroke-linejoin:miter;stroke-miterlimit:10;"/></g><!--link Verifier to UC11--><g class="link" data-entity-1="ent0003" data-entity-2="ent0016" data-link-type="dependency" data-source-line="43" id="lnk30"><path d="M132.96,560.6869 C168.66,566.2269 211.1591,572.8305 251.2591,579.0505" fill="none" id="Verifier-to-UC11" style="stroke:#181818;stroke-width:1;"/><polygon fill="#181818" points="256.2,579.8169,247.9195,574.4846,251.2591,579.0505,246.6932,582.3901,256.2,579.8169" style="stroke:#181818;stroke-width:1;stroke-linejoin:miter;stroke-miterlimit:10;"/></g><!--link Verifier to UC12--><g class="link" data-entity-1="ent0003" data-entity-2="ent0017" data-link-type="dependency" data-source-line="44" id="lnk31"><path d="M124.83,590.7869 C143.73,605.1369 166.45,620.5269 188.92,631.2969 C211.47,642.1069 232.5271,649.2249 256.2771,655.5249" fill="none" id="Verifier-to-UC12" style="stroke:#181818;stroke-width:1;"/><polygon fill="#181818" points="261.11,656.8069,253.4364,650.633,256.2771,655.5249,251.3853,658.3656,261.11,656.8069" style="stroke:#181818;stroke-width:1;stroke-linejoin:miter;stroke-miterlimit:10;"/></g><!--link Verifier to UC13--><g class="link" data-entity-1="ent0003" data-entity-2="ent0018" data-link-type="dependency" data-source-line="45" id="lnk32"><path d="M125.51,513.6869 C144.32,499.4969 166.79,484.2469 188.92,473.2969 C208.85,463.4369 226.6012,456.7075 247.9512,450.1375" fill="none" id="Verifier-to-UC13" style="stroke:#181818;stroke-width:1;"/><polygon fill="#181818" points="252.73,448.6669,242.9516,447.4909,247.9512,450.1375,245.3045,455.137,252.73,448.6669" style="stroke:#181818;stroke-width:1;stroke-linejoin:miter;stroke-miterlimit:10;"/></g><!--link Student to UC14--><g class="link" data-entity-1="ent0004" data-entity-2="ent0019" data-link-type="dependency" data-source-line="47" id="lnk33"><path d="M148.67,751.2969 C177.28,751.2969 205.85,751.2969 236.65,751.2969" fill="none" id="Student-to-UC14" style="stroke:#181818;stroke-width:1;"/><polygon fill="#181818" points="241.65,751.2969,232.65,747.2969,236.65,751.2969,232.65,755.2969,241.65,751.2969" style="stroke:#181818;stroke-width:1;stroke-linejoin:miter;stroke-miterlimit:10;"/></g><!--link UC9 to UC6--><g class="link" data-entity-1="ent0014" data-entity-2="ent0011" data-link-type="dependency" data-source-line="49" id="lnk34"><path d="M396.38,816.0969 C418.37,811.3269 442.78,803.4169 462.2,790.2969 C480.62,777.8569 475.81,765.3069 492.2,750.2969 C522.68,722.3969 534.08,719.4269 571.2,701.2969 C586.79,693.6869 599.7057,688.4209 615.6457,682.6809" fill="none" id="UC9-to-UC6" style="stroke:#181818;stroke-width:1;stroke-dasharray:7,7;"/><polygon fill="#181818" points="620.35,680.9869,610.5271,680.2727,615.6457,682.6809,613.2375,687.7995,620.35,680.9869" style="stroke:#181818;stroke-width:1;stroke-linejoin:miter;stroke-miterlimit:10;"/><text fill="#000000" font-family="sans-serif" font-size="13" lengthAdjust="spacing" textLength="47.0996" x="493.2" y="712.3638">include</text></g><!--link UC9 to UC7--><g class="link" data-entity-1="ent0014" data-entity-2="ent0012" data-link-type="dependency" data-source-line="50" id="lnk35"><path d="M383.79,812.0669 C440.32,798.0369 532.6674,775.1018 597.6274,758.9718" fill="none" id="UC9-to-UC7" style="stroke:#181818;stroke-width:1;stroke-dasharray:7,7;"/><polygon fill="#181818" points="602.48,757.7669,592.7813,756.0537,597.6274,758.9718,594.7092,763.8179,602.48,757.7669" style="stroke:#181818;stroke-width:1;stroke-linejoin:miter;stroke-miterlimit:10;"/><text fill="#000000" font-family="sans-serif" font-size="13" lengthAdjust="spacing" textLength="47.0996" x="493.2" y="771.3638">include</text></g><!--link UC9 to UC8--><g class="link" data-entity-1="ent0014" data-entity-2="ent0013" data-link-type="dependency" data-source-line="51" id="lnk36"><path d="M403.02,822.3269 C454.36,821.5469 521.7006,820.5224 577.9406,819.6724" fill="none" id="UC9-to-UC8" style="stroke:#181818;stroke-width:1;stroke-dasharray:7,7;"/><polygon fill="#181818" points="582.94,819.5969,573.8806,815.7333,577.9406,819.6724,574.0015,823.7324,582.94,819.5969" style="stroke:#181818;stroke-width:1;stroke-linejoin:miter;stroke-miterlimit:10;"/><text fill="#000000" font-family="sans-serif" font-size="13" lengthAdjust="spacing" textLength="47.0996" x="493.2" y="817.3638">include</text></g><!--link UC4 to UC5--><g class="link" data-entity-1="ent0009" data-entity-2="ent0010" data-link-type="dependency" data-source-line="52" id="lnk37"><path d="M387.95,263.1269 C410.61,256.5769 437.8,248.6269 462.2,241.2969 C512.55,226.1669 564.8481,209.9399 606.2381,196.9899" fill="none" id="UC4-to-UC5" style="stroke:#181818;stroke-width:1;stroke-dasharray:7,7;"/><polygon fill="#181818" points="611.01,195.4969,601.2262,194.3668,606.2381,196.9899,603.615,202.0018,611.01,195.4969" style="stroke:#181818;stroke-width:1;stroke-linejoin:miter;stroke-miterlimit:10;"/><text fill="#000000" font-family="sans-serif" font-size="13" lengthAdjust="spacing" textLength="47.0996" x="493.2" y="215.3638">include</text></g><?plantuml-src RPF1Zjem48RlVefHJks1PGFPXQtQIZIerKfDYnAWPoiCOArZKzj1MbLzzqvCt0qabsZcznVxdndR2ISHDXOXvVHP2duml88Hf4PREreRlj-B4efNwx22Tzau6yVl6PEuT-0q674uEjW9WwKJMZ76IwSDH8lQQQKhNLlOub6K4YFW_-D0vSK6KgsSqLAYyGH9ONMpMYqMt-aV8_QYNGv9O9PuHgbFQ60CXQjtg9pdsfYnnXXN1wenyjvlwiguuWUi26rBZE0FOm2rnRBfHrIWsi5sieKlo4kj_EQRD1v0dY77tpLQrpAJBfDZYUACyCrm5O1f5_2su5avDFRIovPAUaUbkZf9T0WPMalkM_3XodTwnF85Gfch8uajzzZ72k4xLA0vKoSBgOF5MP_DTKr7qzJsKfI1ctSvNoFGT7vn4O2dAtD-Yg-mHBwJclRyQX1tkWhDlHzWQTxKlrJNjFN7Jn07DXvWsriM6lNMotWoGF_GL7zLIxecsDnNFmbgIFXdUcKzuwVctZUEy_NF0jRSljY09kmlO-7qqUYplodN-UGcdzxaoKrEKsrUoILvxCIpJZpln4-DWyiZ2HRkUqhSKoOzXUfkNr5G4iPeVxYxyrxW0mXLIY8wwcnGdL-fIQi-lAd_0000?></g></svg>