<svg xmlns="http://www.w3.org/2000/svg" xmlns:xlink="http://www.w3.org/1999/xlink" contentStyleType="text/css" data-diagram-type="SEQUENCE" height="1442px" preserveAspectRatio="none" style="width:1109px;height:1442px;background:#FFFFFF;" version="1.1" viewBox="0 0 1109 1442" width="1109px" zoomAndPan="magnify"><?plantuml 1.2026.5?><defs/><g><g class="title" data-source-line="1"><text fill="#000000" font-family="sans-serif" font-size="14" font-weight="700" lengthAdjust="spacing" textLength="419.3916" x="341.3938" y="27.9951">Sequence Diagram - V2V/V2I Communication (M/M/2)</text></g><rect fill="none" height="504.7969" style="stroke:#000000;stroke-width:1.5;" width="620.3638" x="10" y="584.5859"/><g class="participant-lifeline" data-entity-uid="part1" data-qualified-name="V1" data-source-line="3" id="part1-lifeline"><g><title>Vehicle 1</title><rect fill="#000000" fill-opacity="0.00000" height="1241.5859" width="8" x="51.2554" y="118.5938"/><line style="stroke:#181818;stroke-width:0.5;stroke-dasharray:5,5;" x1="55" x2="55" y1="118.5938" y2="1360.1797"/></g></g><g class="participant-lifeline" data-entity-uid="part2" data-qualified-name="V2" data-source-line="4" id="part2-lifeline"><g><title>Vehicle 2</title><rect fill="#000000" fill-opacity="0.00000" height="1241.5859" width="8" x="131.7661" y="118.5938"/><line style="stroke:#181818;stroke-width:0.5;stroke-dasharray:5,5;" x1="135.5107" x2="135.5107" y1="118.5938" y2="1360.1797"/></g></g><g class="participant-lifeline" data-entity-uid="part3" data-qualified-name="V3" data-source-line="5" id="part3-lifeline"><g><title>Vehicle 3</title><rect fill="#000000" fill-opacity="0.00000" height="1241.5859" width="8" x="212.2769" y="118.5938"/><line style="stroke:#181818;stroke-width:0.5;stroke-dasharray:5,5;" x1="216.0215" x2="216.0215" y1="118.5938" y2="1360.1797"/></g></g><g class="participant-lifeline" data-entity-uid="part4" data-qualified-name="Bus" data-source-line="6" id="part4-lifeline"><g><title>V2V Bus</title><rect fill="#000000" fill-opacity="0.00000" height="1241.5859" width="8" x="370.2505" y="118.5938"/><line style="stroke:#181818;stroke-width:0.5;stroke-dasharray:5,5;" x1="374.1089" x2="374.1089" y1="118.5938" y2="1360.1797"/></g></g><g class="participant-lifeline" data-entity-uid="part5" data-qualified-name="RSU" data-source-line="7" id="part5-lifeline"><g><title>RSU Controller</title><rect fill="#000000" fill-opacity="0.00000" height="1241.5859" width="8" x="474.6343" y="118.5938"/><line style="stroke:#181818;stroke-width:0.5;stroke-dasharray:5,5;" x1="478.3921" x2="478.3921" y1="118.5938" y2="1360.1797"/></g></g><g class="participant-lifeline" data-entity-uid="part6" data-qualified-name="Phase" data-source-line="8" id="part6-lifeline"><g><title>Phase Controller</title><rect fill="#000000" fill-opacity="0.00000" height="1241.5859" width="8" x="654.1621" y="118.5938"/><line style="stroke:#181818;stroke-width:0.5;stroke-dasharray:5,5;" x1="657.4497" x2="657.4497" y1="118.5938" y2="1360.1797"/></g></g><g class="participant-lifeline" data-entity-uid="part7" data-qualified-name="UPPAAL" data-source-line="9" id="part7-lifeline"><g><title>UPPAAL Verifier</title><rect fill="#000000" fill-opacity="0.00000" height="1241.5859" width="8" x="790.6543" y="118.5938"/><line style="stroke:#181818;stroke-width:0.5;stroke-dasharray:5,5;" x1="793.8745" x2="793.8745" y1="118.5938" y2="1360.1797"/></g></g><g class="participant participant-head" data-entity-uid="part1" data-qualified-name="V1" data-source-line="3" id="part1-head"><text fill="#000000" font-family="sans-serif" font-size="14" lengthAdjust="spacing" textLength="64.5107" x="20" y="115.292">Vehicle 1</text><ellipse cx="55.2554" cy="50.7969" fill="#E2E2F0" rx="8" ry="8" style="stroke:#181818;stroke-width:0.5;"/><path d="M55.2554,58.7969 L55.2554,85.7969 M42.2554,66.7969 L68.2554,66.7969 M55.2554,85.7969 L42.2554,100.7969 M55.2554,85.7969 L68.2554,100.7969" fill="none" style="stroke:#181818;stroke-width:0.5;"/></g><g class="participant participant-tail" data-entity-uid="part1" data-qualified-name="V1" data-source-line="3" id="part1-tail"><text fill="#000000" font-family="sans-serif" font-size="14" lengthAdjust="spacing" textLength="64.5107" x="20" y="1372.1748">Vehicle 1</text><ellipse cx="55.2554" cy="1383.9766" fill="#E2E2F0" rx="8" ry="8" style="stroke:#181818;stroke-width:0.5;"/><path d="M55.2554,1391.9766 L55.2554,1418.9766 M42.2554,1399.9766 L68.2554,1399.9766 M55.2554,1418.9766 L42.2554,1433.9766 M55.2554,1418.9766 L68.2554,1433.9766" fill="none" style="stroke:#181818;stroke-width:0.5;"/></g><g class="participant participant-head" data-entity-uid="part2" data-qualified-name="V2" data-source-line="4" id="part2-head"><text fill="#000000" font-family="sans-serif" font-size="14" lengthAdjust="spacing" textLength="64.5107" x="100.5107" y="115.292">Vehicle 2</text><ellipse cx="135.7661" cy="50.7969" fill="#E2E2F0" rx="8" ry="8" style="stroke:#181818;stroke-width:0.5;"/><path d="M135.7661,58.7969 L135.7661,85.7969 M122.7661,66.7969 L148.7661,66.7969 M135.7661,85.7969 L122.7661,100.7969 M135.7661,85.7969 L148.7661,100.7969" fill="none" style="stroke:#181818;stroke-width:0.5;"/></g><g class="participant participant-tail" data-entity-uid="part2" data-qualified-name="V2" data-source-line="4" id="part2-tail"><text fill="#000000" font-family="sans-serif" font-size="14" lengthAdjust="spacing" textLength="64.5107" x="100.5107" y="1372.1748">Vehicle 2</text><ellipse cx="135.7661" cy="1383.9766" fill="#E2E2F0" rx="8" ry="8" style="stroke:#181818;stroke-width:0.5;"/><path d="M135.7661,1391.9766 L135.7661,1418.9766 M122.7661,1399.9766 L148.7661,1399.9766 M135.7661,1418.9766 L122.7661,1433.9766 M135.7661,1418.9766 L148.7661,1433.9766" fill="none" style="stroke:#181818;stroke-width:0.5;"/></g><g class="participant participant-head" data-entity-uid="part3" data-qualified-name="V3" data-source-line="5" id="part3-head"><text fill="#000000" font-family="sans-serif" font-size="14" lengthAdjust="spacing" textLength="64.5107" x="181.0215" y="115.292">Vehicle 3</text><ellipse cx="216.2769" cy="50.7969" fill="#E2E2F0" rx="8" ry="8" style="stroke:#181818;stroke-width:0.5;"/><path d="M216.2769,58.7969 L216.2769,85.7969 M203.2769,66.7969 L229.2769,66.7969 M216.2769,85.7969 L203.2769,100.7969 M216.2769,85.7969 L229.2769,100.7969" fill="none" style="stroke:#181818;stroke-width:0.5;"/></g><g class="participant participant-tail" data-entity-uid="part3" data-qualified-name="V3" data-source-line="5" id="part3-tail"><text fill="#000000" font-family="sans-serif" font-size="14" lengthAdjust="spacing" textLength="64.5107" x="181.0215" y="1372.1748">Vehicle 3</text><ellipse cx="216.2769" cy="1383.9766" fill="#E2E2F0" rx="8" ry="8" style="stroke:#181818;stroke-width:0.5;"/><path d="M216.2769,1391.9766 L216.2769,1418.9766 M203.2769,1399.9766 L229.2769,1399.9766 M216.2769,1418.9766 L203.2769,1433.9766 M216.2769,1418.9766 L229.2769,1433.9766" fill="none" style="stroke:#181818;stroke-width:0.5;"/></g><g class="participant participant-head" data-entity-uid="part4" data-qualified-name="Bus" data-source-line="6" id="part4-head"><rect fill="#E2E2F0" height="30.2969" rx="2.5" ry="2.5" style="stroke:#181818;stroke-width:0.5;" width="72.2832" x="338.1089" y="87.2969"/><text fill="#000000" font-family="sans-serif" font-size="14" lengthAdjust="spacing" textLength="58.2832" x="345.1089" y="107.292">V2V Bus</text></g><g class="participant participant-tail" data-entity-uid="part4" data-qualified-name="Bus" data-source-line="6" id="part4-tail"><rect fill="#E2E2F0" height="30.2969" rx="2.5" ry="2.5" style="stroke:#181818;stroke-width:0.5;" width="72.2832" x="338.1089" y="1359.1797"/><text fill="#000000" font-family="sans-serif" font-size="14" lengthAdjust="spacing" textLength="58.2832" x="345.1089" y="1379.1748">V2V Bus</text></g><g class="participant participant-head" data-entity-uid="part5" data-qualified-name="RSU" data-source-line="7" id="part5-head"><rect fill="#E2E2F0" height="30.2969" rx="2.5" ry="2.5" style="stroke:#181818;stroke-width:0.5;" width="116.4844" x="420.3921" y="87.2969"/><text fill="#000000" font-family="sans-serif" font-size="14" lengthAdjust="spacing" textLength="102.4844" x="427.3921" y="107.292">RSU Controller</text></g><g class="participant participant-tail" data-entity-uid="part5" data-qualified-name="RSU" data-source-line="7" id="part5-tail"><rect fill="#E2E2F0" height="30.2969" rx="2.5" ry="2.5" style="stroke:#181818;stroke-width:0.5;" width="116.4844" x="420.3921" y="1359.1797"/><text fill="#000000" font-family="sans-serif" font-size="14" lengthAdjust="spacing" textLength="102.4844" x="427.3921" y="1379.1748">RSU Controller</text></g><g class="participant participant-head" data-entity-uid="part6" data-qualified-name="Phase" data-source-line="8" id="part6-head"><rect fill="#E2E2F0" height="30.2969" rx="2.5" ry="2.5" style="stroke:#181818;stroke-width:0.5;" width="129.4248" x="593.4497" y="87.2969"/><text fill="#000000" font-family="sans-serif" font-size="14" lengthAdjust="spacing" textLength="115.4248" x="600.4497" y="107.292">Phase Controller</text></g><g class="participant participant-tail" data-entity-uid="part6" data-qualified-name="Phase" data-source-line="8" id="part6-tail"><rect fill="#E2E2F0" height="30.2969" rx="2.5" ry="2.5" style="stroke:#181818;stroke-width:0.5;" width="129.4248" x="593.4497" y="1359.1797"/><text fill="#000000" font-family="sans-serif" font-size="14" lengthAdjust="spacing" textLength="115.4248" x="600.4497" y="1379.1748">Phase Controller</text></g><g class="participant participant-head" data-entity-uid="part7" data-qualified-name="UPPAAL" data-source-line="9" id="part7-head"><rect fill="#E2E2F0" height="30.2969" rx="2.5" ry="2.5" style="stroke:#181818;stroke-width:0.5;" width="123.5596" x="732.8745" y="87.2969"/><text fill="#000000" font-family="sans-serif" font-size="14" lengthAdjust="spacing" textLength="109.5596" x="739.8745" y="107.292">UPPAAL Verifier</text></g><g class="participant participant-tail" data-entity-uid="part7" data-qualified-name="UPPAAL" data-source-line="9" id="part7-tail"><rect fill="#E2E2F0" height="30.2969" rx="2.5" ry="2.5" style="stroke:#181818;stroke-width:0.5;" width="123.5596" x="732.8745" y="1359.1797"/><text fill="#000000" font-family="sans-serif" font-size="14" lengthAdjust="spacing" textLength="109.5596" x="739.8745" y="1379.1748">UPPAAL Verifier</text></g><rect fill="#EEEEEE" height="3" style="stroke:#EEEEEE;stroke-width:1;" width="1103.1792" x="0" y="149.1602"/><line style="stroke:#000000;stroke-width:1;" x1="0" x2="1103.1792" y1="149.1602" y2="149.1602"/><line style="stroke:#000000;stroke-width:1;" x1="0" x2="1103.1792" y1="152.1602" y2="152.1602"/><rect fill="#EEEEEE" height="23.1328" style="stroke:#000000;stroke-width:2;" width="180.7974" x="461.1909" y="138.5938"/><text fill="#000000" font-family="sans-serif" font-size="13" font-weight="700" lengthAdjust="spacing" textLength="162.2715" x="467.1909" y="154.6606">V2V Intention Sharing</text><g class="message" data-entity-1="part1" data-entity-2="part4" data-source-line="13" id="msg1"><polygon fill="#181818" points="362.2505,203.9922,372.2505,207.9922,362.2505,211.9922,366.2505,207.9922" style="stroke:#181818;stroke-width:1;stroke-linejoin:miter;stroke-miterlimit:10;"/><line style="stroke:#181818;stroke-width:1;" x1="55.2554" x2="368.2505" y1="207.9922" y2="207.9922"/><text fill="#000000" font-family="sans-serif" font-size="13" lengthAdjust="spacing" textLength="61.0391" x="62.2554" y="187.7935">beacon1!</text><text fill="#000000" font-family="sans-serif" font-size="13" lengthAdjust="spacing" textLength="133.9736" x="62.2554" y="202.9263">Send route/intention</text></g><g class="message" data-entity-1="part2" data-entity-2="part4" data-source-line="14" id="msg2"><polygon fill="#181818" points="362.2505,248.2578,372.2505,252.2578,362.2505,256.2578,366.2505,252.2578" style="stroke:#181818;stroke-width:1;stroke-linejoin:miter;stroke-miterlimit:10;"/><line style="stroke:#181818;stroke-width:1;" x1="135.7661" x2="368.2505" y1="252.2578" y2="252.2578"/><text fill="#000000" font-family="sans-serif" font-size="13" lengthAdjust="spacing" textLength="61.0391" x="142.7661" y="232.0591">beacon2!</text><text fill="#000000" font-family="sans-serif" font-size="13" lengthAdjust="spacing" textLength="133.9736" x="142.7661" y="247.1919">Send route/intention</text></g><g class="message" data-entity-1="part3" data-entity-2="part4" data-source-line="15" id="msg3"><polygon fill="#181818" points="362.2505,292.5234,372.2505,296.5234,362.2505,300.5234,366.2505,296.5234" style="stroke:#181818;stroke-width:1;stroke-linejoin:miter;stroke-miterlimit:10;"/><line style="stroke:#181818;stroke-width:1;" x1="216.2769" x2="368.2505" y1="296.5234" y2="296.5234"/><text fill="#000000" font-family="sans-serif" font-size="13" lengthAdjust="spacing" textLength="61.0391" x="223.2769" y="276.3247">beacon3!</text><text fill="#000000" font-family="sans-serif" font-size="13" lengthAdjust="spacing" textLength="133.9736" x="223.2769" y="291.4575">Send route/intention</text></g><rect fill="#EEEEEE" height="3" style="stroke:#EEEEEE;stroke-width:1;" width="1103.1792" x="0" y="325.0898"/><line style="stroke:#000000;stroke-width:1;" x1="0" x2="1103.1792" y1="325.0898" y2="325.0898"/><line style="stroke:#000000;stroke-width:1;" x1="0" x2="1103.1792" y1="328.0898" y2="328.0898"/><rect fill="#EEEEEE" height="23.1328" style="stroke:#000000;stroke-width:2;" width="107.1519" x="498.0137" y="314.5234"/><text fill="#000000" font-family="sans-serif" font-size="13" font-weight="700" lengthAdjust="spacing" textLength="88.626" x="504.0137" y="330.5903">V2I Request</text><g class="message" data-entity-1="part1" data-entity-2="part5" data-source-line="19" id="msg4"><polygon fill="#181818" points="466.6343,364.7891,476.6343,368.7891,466.6343,372.7891,470.6343,368.7891" style="stroke:#181818;stroke-width:1;stroke-linejoin:miter;stroke-miterlimit:10;"/><line style="stroke:#181818;stroke-width:1;" x1="55.2554" x2="472.6343" y1="368.7891" y2="368.7891"/><text fill="#000000" font-family="sans-serif" font-size="13" lengthAdjust="spacing" textLength="63.1846" x="62.2554" y="363.7231">request1!</text></g><g class="message" data-entity-1="part2" data-entity-2="part5" data-source-line="20" id="msg5"><polygon fill="#181818" points="466.6343,393.9219,476.6343,397.9219,466.6343,401.9219,470.6343,397.9219" style="stroke:#181818;stroke-width:1;stroke-linejoin:miter;stroke-miterlimit:10;"/><line style="stroke:#181818;stroke-width:1;" x1="135.7661" x2="472.6343" y1="397.9219" y2="397.9219"/><text fill="#000000" font-family="sans-serif" font-size="13" lengthAdjust="spacing" textLength="63.1846" x="142.7661" y="392.856">request2!</text></g><g class="message" data-entity-1="part3" data-entity-2="part5" data-source-line="21" id="msg6"><polygon fill="#181818" points="466.6343,423.0547,476.6343,427.0547,466.6343,431.0547,470.6343,427.0547" style="stroke:#181818;stroke-width:1;stroke-linejoin:miter;stroke-miterlimit:10;"/><line style="stroke:#181818;stroke-width:1;" x1="216.2769" x2="472.6343" y1="427.0547" y2="427.0547"/><text fill="#000000" font-family="sans-serif" font-size="13" lengthAdjust="spacing" textLength="63.1846" x="223.2769" y="421.9888">request3!</text></g><g class="message" data-entity-1="part5" data-entity-2="part6" data-source-line="23" id="msg7"><polygon fill="#181818" points="646.1621,452.1875,656.1621,456.1875,646.1621,460.1875,650.1621,456.1875" style="stroke:#181818;stroke-width:1;stroke-linejoin:miter;stroke-miterlimit:10;"/><line style="stroke:#181818;stroke-width:1;" x1="478.6343" x2="652.1621" y1="456.1875" y2="456.1875"/><text fill="#000000" font-family="sans-serif" font-size="13" lengthAdjust="spacing" textLength="124.4648" x="485.6343" y="451.1216">read current phase</text></g><g class="message" data-entity-1="part6" data-entity-2="part5" data-source-line="24" id="msg8"><polygon fill="#181818" points="489.6343,481.3203,479.6343,485.3203,489.6343,489.3203,485.6343,485.3203" style="stroke:#181818;stroke-width:1;stroke-linejoin:miter;stroke-miterlimit:10;"/><line style="stroke:#181818;stroke-width:1;stroke-dasharray:2,2;" x1="483.6343" x2="657.1621" y1="485.3203" y2="485.3203"/><text fill="#000000" font-family="sans-serif" font-size="13" lengthAdjust="spacing" textLength="90.7715" x="495.6343" y="480.2544">current phase</text></g><g class="message" data-entity-1="part5" data-entity-2="part5" data-source-line="26" id="msg9"><line style="stroke:#181818;stroke-width:1;" x1="478.6343" x2="520.6343" y1="514.4531" y2="514.4531"/><line style="stroke:#181818;stroke-width:1;" x1="520.6343" x2="520.6343" y1="514.4531" y2="527.4531"/><line style="stroke:#181818;stroke-width:1;" x1="479.6343" x2="520.6343" y1="527.4531" y2="527.4531"/><polygon fill="#181818" points="489.6343,523.4531,479.6343,527.4531,489.6343,531.4531,485.6343,527.4531" style="stroke:#181818;stroke-width:1;stroke-linejoin:miter;stroke-miterlimit:10;"/><text fill="#000000" font-family="sans-serif" font-size="13" lengthAdjust="spacing" textLength="147.7417" x="485.6343" y="509.3872">check activeCount &lt; 2</text></g><g class="message" data-entity-1="part5" data-entity-2="part5" data-source-line="27" id="msg10"><line style="stroke:#181818;stroke-width:1;" x1="478.6343" x2="520.6343" y1="556.5859" y2="556.5859"/><line style="stroke:#181818;stroke-width:1;" x1="520.6343" x2="520.6343" y1="556.5859" y2="569.5859"/><line style="stroke:#181818;stroke-width:1;" x1="479.6343" x2="520.6343" y1="569.5859" y2="569.5859"/><polygon fill="#181818" points="489.6343,565.5859,479.6343,569.5859,489.6343,573.5859,485.6343,569.5859" style="stroke:#181818;stroke-width:1;stroke-linejoin:miter;stroke-miterlimit:10;"/><text fill="#000000" font-family="sans-serif" font-size="13" lengthAdjust="spacing" textLength="165.5278" x="485.6343" y="551.52">check route compatibility</text></g><path d="M10,584.5859 L74.4429,584.5859 L74.4429,591.7188 L64.4429,601.7188 L10,601.7188 L10,584.5859" fill="#EEEEEE" style="stroke:#000000;stroke-width:1.5;"/><rect fill="none" height="504.7969" style="stroke:#000000;stroke-width:1.5;" width="620.3638" x="10" y="584.5859"/><text fill="#000000" font-family="sans-serif" font-size="13" font-weight="700" lengthAdjust="spacing" textLength="19.4429" x="25" y="597.6528">alt</text><text fill="#000000" font-family="sans-serif" font-size="11" font-weight="700" lengthAdjust="spacing" textLength="251.3994" x="89.4429" y="596.7964">[Vehicle 1 and Vehicle 2 are compatible]</text><g class="message" data-entity-1="part5" data-entity-2="part1" data-source-line="30" id="msg11"><polygon fill="#181818" points="66.2554,618.8516,56.2554,622.8516,66.2554,626.8516,62.2554,622.8516" style="stroke:#181818;stroke-width:1;stroke-linejoin:miter;stroke-miterlimit:10;"/><line style="stroke:#181818;stroke-width:1;" x1="60.2554" x2="477.6343" y1="622.8516" y2="622.8516"/><text fill="#000000" font-family="sans-serif" font-size="13" lengthAdjust="spacing" textLength="48.3818" x="72.2554" y="617.7856">grant1!</text></g><g class="message" data-entity-1="part5" data-entity-2="part2" data-source-line="31" id="msg12"><polygon fill="#181818" points="146.7661,647.9844,136.7661,651.9844,146.7661,655.9844,142.7661,651.9844" style="stroke:#181818;stroke-width:1;stroke-linejoin:miter;stroke-miterlimit:10;"/><line style="stroke:#181818;stroke-width:1;" x1="140.7661" x2="477.6343" y1="651.9844" y2="651.9844"/><text fill="#000000" font-family="sans-serif" font-size="13" lengthAdjust="spacing" textLength="48.3818" x="152.7661" y="646.9185">grant2!</text></g><g class="message" data-entity-1="part1" data-entity-2="part1" data-source-line="32" id="msg13"><line style="stroke:#181818;stroke-width:1;" x1="55.2554" x2="97.2554" y1="681.1172" y2="681.1172"/><line style="stroke:#181818;stroke-width:1;" x1="97.2554" x2="97.2554" y1="681.1172" y2="694.1172"/><line style="stroke:#181818;stroke-width:1;" x1="56.2554" x2="97.2554" y1="694.1172" y2="694.1172"/><polygon fill="#181818" points="66.2554,690.1172,56.2554,694.1172,66.2554,698.1172,62.2554,694.1172" style="stroke:#181818;stroke-width:1;stroke-linejoin:miter;stroke-miterlimit:10;"/><text fill="#000000" font-family="sans-serif" font-size="13" lengthAdjust="spacing" textLength="56.0244" x="62.2554" y="676.0513">Crossing</text></g><g class="message" data-entity-1="part2" data-entity-2="part2" data-source-line="33" id="msg14"><line style="stroke:#181818;stroke-width:1;" x1="135.7661" x2="177.7661" y1="723.25" y2="723.25"/><line style="stroke:#181818;stroke-width:1;" x1="177.7661" x2="177.7661" y1="723.25" y2="736.25"/><line style="stroke:#181818;stroke-width:1;" x1="136.7661" x2="177.7661" y1="736.25" y2="736.25"/><polygon fill="#181818" points="146.7661,732.25,136.7661,736.25,146.7661,740.25,142.7661,736.25" style="stroke:#181818;stroke-width:1;stroke-linejoin:miter;stroke-miterlimit:10;"/><text fill="#000000" font-family="sans-serif" font-size="13" lengthAdjust="spacing" textLength="56.0244" x="142.7661" y="718.1841">Crossing</text></g><g class="message" data-entity-1="part1" data-entity-2="part5" data-source-line="35" id="msg15"><polygon fill="#181818" points="466.6343,761.3828,476.6343,765.3828,466.6343,769.3828,470.6343,765.3828" style="stroke:#181818;stroke-width:1;stroke-linejoin:miter;stroke-miterlimit:10;"/><line style="stroke:#181818;stroke-width:1;" x1="55.2554" x2="472.6343" y1="765.3828" y2="765.3828"/><text fill="#000000" font-family="sans-serif" font-size="13" lengthAdjust="spacing" textLength="74.2041" x="62.2554" y="760.3169">complete1!</text></g><g class="message" data-entity-1="part2" data-entity-2="part5" data-source-line="36" id="msg16"><polygon fill="#181818" points="466.6343,790.5156,476.6343,794.5156,466.6343,798.5156,470.6343,794.5156" style="stroke:#181818;stroke-width:1;stroke-linejoin:miter;stroke-miterlimit:10;"/><line style="stroke:#181818;stroke-width:1;" x1="135.7661" x2="472.6343" y1="794.5156" y2="794.5156"/><text fill="#000000" font-family="sans-serif" font-size="13" lengthAdjust="spacing" textLength="74.2041" x="142.7661" y="789.4497">complete2!</text></g><g class="message" data-entity-1="part5" data-entity-2="part5" data-source-line="37" id="msg17"><line style="stroke:#181818;stroke-width:1;" x1="478.6343" x2="520.6343" y1="823.6484" y2="823.6484"/><line style="stroke:#181818;stroke-width:1;" x1="520.6343" x2="520.6343" y1="823.6484" y2="836.6484"/><line style="stroke:#181818;stroke-width:1;" x1="479.6343" x2="520.6343" y1="836.6484" y2="836.6484"/><polygon fill="#181818" points="489.6343,832.6484,479.6343,836.6484,489.6343,840.6484,485.6343,836.6484" style="stroke:#181818;stroke-width:1;stroke-linejoin:miter;stroke-miterlimit:10;"/><text fill="#000000" font-family="sans-serif" font-size="13" lengthAdjust="spacing" textLength="132.7295" x="485.6343" y="818.5825">release service slots</text></g><line style="stroke:#000000;stroke-width:1;stroke-dasharray:2,2;" x1="10" x2="630.3638" y1="845.6484" y2="845.6484"/><text fill="#000000" font-family="sans-serif" font-size="11" font-weight="700" lengthAdjust="spacing" textLength="150.3315" x="15" y="855.8589">[Vehicle 3 is conflicting]</text><g class="message" data-entity-1="part5" data-entity-2="part1" data-source-line="39" id="msg18"><polygon fill="#181818" points="66.2554,876.5859,56.2554,880.5859,66.2554,884.5859,62.2554,880.5859" style="stroke:#181818;stroke-width:1;stroke-linejoin:miter;stroke-miterlimit:10;"/><line style="stroke:#181818;stroke-width:1;" x1="60.2554" x2="477.6343" y1="880.5859" y2="880.5859"/><text fill="#000000" font-family="sans-serif" font-size="13" lengthAdjust="spacing" textLength="48.3818" x="72.2554" y="875.52">grant1!</text></g><g class="message" data-entity-1="part1" data-entity-2="part1" data-source-line="40" id="msg19"><line style="stroke:#181818;stroke-width:1;" x1="55.2554" x2="97.2554" y1="909.7188" y2="909.7188"/><line style="stroke:#181818;stroke-width:1;" x1="97.2554" x2="97.2554" y1="909.7188" y2="922.7188"/><line style="stroke:#181818;stroke-width:1;" x1="56.2554" x2="97.2554" y1="922.7188" y2="922.7188"/><polygon fill="#181818" points="66.2554,918.7188,56.2554,922.7188,66.2554,926.7188,62.2554,922.7188" style="stroke:#181818;stroke-width:1;stroke-linejoin:miter;stroke-miterlimit:10;"/><text fill="#000000" font-family="sans-serif" font-size="13" lengthAdjust="spacing" textLength="56.0244" x="62.2554" y="904.6528">Crossing</text></g><g class="message" data-entity-1="part3" data-entity-2="part5" data-source-line="41" id="msg20"><polygon fill="#181818" points="466.6343,947.8516,476.6343,951.8516,466.6343,955.8516,470.6343,951.8516" style="stroke:#181818;stroke-width:1;stroke-linejoin:miter;stroke-miterlimit:10;"/><line style="stroke:#181818;stroke-width:1;" x1="216.2769" x2="472.6343" y1="951.8516" y2="951.8516"/><text fill="#000000" font-family="sans-serif" font-size="13" lengthAdjust="spacing" textLength="189.6426" x="223.2769" y="946.7856">waits because route conflicts</text></g><g class="message" data-entity-1="part1" data-entity-2="part5" data-source-line="43" id="msg21"><polygon fill="#181818" points="466.6343,976.9844,476.6343,980.9844,466.6343,984.9844,470.6343,980.9844" style="stroke:#181818;stroke-width:1;stroke-linejoin:miter;stroke-miterlimit:10;"/><line style="stroke:#181818;stroke-width:1;" x1="55.2554" x2="472.6343" y1="980.9844" y2="980.9844"/><text fill="#000000" font-family="sans-serif" font-size="13" lengthAdjust="spacing" textLength="74.2041" x="62.2554" y="975.9185">complete1!</text></g><g class="message" data-entity-1="part5" data-entity-2="part3" data-source-line="44" id="msg22"><polygon fill="#181818" points="227.2769,1006.1172,217.2769,1010.1172,227.2769,1014.1172,223.2769,1010.1172" style="stroke:#181818;stroke-width:1;stroke-linejoin:miter;stroke-miterlimit:10;"/><line style="stroke:#181818;stroke-width:1;" x1="221.2769" x2="477.6343" y1="1010.1172" y2="1010.1172"/><text fill="#000000" font-family="sans-serif" font-size="13" lengthAdjust="spacing" textLength="48.3818" x="233.2769" y="1005.0513">grant3!</text></g><g class="message" data-entity-1="part3" data-entity-2="part3" data-source-line="45" id="msg23"><line style="stroke:#181818;stroke-width:1;" x1="216.2769" x2="258.2769" y1="1039.25" y2="1039.25"/><line style="stroke:#181818;stroke-width:1;" x1="258.2769" x2="258.2769" y1="1039.25" y2="1052.25"/><line style="stroke:#181818;stroke-width:1;" x1="217.2769" x2="258.2769" y1="1052.25" y2="1052.25"/><polygon fill="#181818" points="227.2769,1048.25,217.2769,1052.25,227.2769,1056.25,223.2769,1052.25" style="stroke:#181818;stroke-width:1;stroke-linejoin:miter;stroke-miterlimit:10;"/><text fill="#000000" font-family="sans-serif" font-size="13" lengthAdjust="spacing" textLength="56.0244" x="223.2769" y="1034.1841">Crossing</text></g><g class="message" data-entity-1="part3" data-entity-2="part5" data-source-line="46" id="msg24"><polygon fill="#181818" points="466.6343,1077.3828,476.6343,1081.3828,466.6343,1085.3828,470.6343,1081.3828" style="stroke:#181818;stroke-width:1;stroke-linejoin:miter;stroke-miterlimit:10;"/><line style="stroke:#181818;stroke-width:1;" x1="216.2769" x2="472.6343" y1="1081.3828" y2="1081.3828"/><text fill="#000000" font-family="sans-serif" font-size="13" lengthAdjust="spacing" textLength="74.2041" x="223.2769" y="1076.3169">complete3!</text></g><rect fill="#EEEEEE" height="3" style="stroke:#EEEEEE;stroke-width:1;" width="1103.1792" x="0" y="1116.9492"/><line style="stroke:#000000;stroke-width:1;" x1="0" x2="1103.1792" y1="1116.9492" y2="1116.9492"/><line style="stroke:#000000;stroke-width:1;" x1="0" x2="1103.1792" y1="1119.9492" y2="1119.9492"/><rect fill="#EEEEEE" height="23.1328" style="stroke:#000000;stroke-width:2;" width="166.2612" x="468.459" y="1106.3828"/><text fill="#000000" font-family="sans-serif" font-size="13" font-weight="700" lengthAdjust="spacing" textLength="147.7354" x="474.459" y="1122.4497">UPPAAL Verification</text><g class="message" data-entity-1="part7" data-entity-2="part7" data-source-line="51" id="msg25"><line style="stroke:#181818;stroke-width:1;" x1="794.6543" x2="836.6543" y1="1160.6484" y2="1160.6484"/><line style="stroke:#181818;stroke-width:1;" x1="836.6543" x2="836.6543" y1="1160.6484" y2="1173.6484"/><line style="stroke:#181818;stroke-width:1;" x1="795.6543" x2="836.6543" y1="1173.6484" y2="1173.6484"/><polygon fill="#181818" points="805.6543,1169.6484,795.6543,1173.6484,805.6543,1177.6484,801.6543,1173.6484" style="stroke:#181818;stroke-width:1;stroke-linejoin:miter;stroke-miterlimit:10;"/><text fill="#000000" font-family="sans-serif" font-size="13" lengthAdjust="spacing" textLength="107.3008" x="801.6543" y="1155.5825">A[] not deadlock</text></g><g class="message" data-entity-1="part7" data-entity-2="part7" data-source-line="52" id="msg26"><line style="stroke:#181818;stroke-width:1;" x1="794.6543" x2="836.6543" y1="1202.7813" y2="1202.7813"/><line style="stroke:#181818;stroke-width:1;" x1="836.6543" x2="836.6543" y1="1202.7813" y2="1215.7813"/><line style="stroke:#181818;stroke-width:1;" x1="795.6543" x2="836.6543" y1="1215.7813" y2="1215.7813"/><polygon fill="#181818" points="805.6543,1211.7813,795.6543,1215.7813,805.6543,1219.7813,801.6543,1215.7813" style="stroke:#181818;stroke-width:1;stroke-linejoin:miter;stroke-miterlimit:10;"/><text fill="#000000" font-family="sans-serif" font-size="13" lengthAdjust="spacing" textLength="139.6104" x="801.6543" y="1197.7153">A[] activeCount &lt;= 2</text></g><g class="message" data-entity-1="part7" data-entity-2="part7" data-source-line="53" id="msg27"><line style="stroke:#181818;stroke-width:1;" x1="794.6543" x2="836.6543" y1="1244.9141" y2="1244.9141"/><line style="stroke:#181818;stroke-width:1;" x1="836.6543" x2="836.6543" y1="1244.9141" y2="1257.9141"/><line style="stroke:#181818;stroke-width:1;" x1="795.6543" x2="836.6543" y1="1257.9141" y2="1257.9141"/><polygon fill="#181818" points="805.6543,1253.9141,795.6543,1257.9141,805.6543,1261.9141,801.6543,1257.9141" style="stroke:#181818;stroke-width:1;stroke-linejoin:miter;stroke-miterlimit:10;"/><text fill="#000000" font-family="sans-serif" font-size="13" lengthAdjust="spacing" textLength="294.5249" x="801.6543" y="1239.8481">E&lt;&gt; Vehicle1.Crossing &amp;&amp; Vehicle2.Crossing</text></g><g class="message" data-entity-1="part7" data-entity-2="part7" data-source-line="54" id="msg28"><line style="stroke:#181818;stroke-width:1;" x1="794.6543" x2="836.6543" y1="1287.0469" y2="1287.0469"/><line style="stroke:#181818;stroke-width:1;" x1="836.6543" x2="836.6543" y1="1287.0469" y2="1300.0469"/><line style="stroke:#181818;stroke-width:1;" x1="795.6543" x2="836.6543" y1="1300.0469" y2="1300.0469"/><polygon fill="#181818" points="805.6543,1296.0469,795.6543,1300.0469,805.6543,1304.0469,801.6543,1300.0469" style="stroke:#181818;stroke-width:1;stroke-linejoin:miter;stroke-miterlimit:10;"/><text fill="#000000" font-family="sans-serif" font-size="13" lengthAdjust="spacing" textLength="146.0405" x="801.6543" y="1281.981">no conflicting crossing</text></g><g class="message" data-entity-1="part7" data-entity-2="part7" data-source-line="55" id="msg29"><line style="stroke:#181818;stroke-width:1;" x1="794.6543" x2="836.6543" y1="1329.1797" y2="1329.1797"/><line style="stroke:#181818;stroke-width:1;" x1="836.6543" x2="836.6543" y1="1329.1797" y2="1342.1797"/><line style="stroke:#181818;stroke-width:1;" x1="795.6543" x2="836.6543" y1="1342.1797" y2="1342.1797"/><polygon fill="#181818" points="805.6543,1338.1797,795.6543,1342.1797,805.6543,1346.1797,801.6543,1342.1797" style="stroke:#181818;stroke-width:1;stroke-linejoin:miter;stroke-miterlimit:10;"/><text fill="#000000" font-family="sans-serif" font-size="13" lengthAdjust="spacing" textLength="179.042" x="801.6543" y="1324.1138">all vehicles can reach Done</text></g><?plantuml-src XLHDRnen4BtxLmmvHEs1elNUK3OI9JqWDH8AobxQ7Xmp2LQCJMqlLVzzPzVsTXUnBHVGcpTVRvu9AcY47Vviq4Y41oNUd3Z276fUBsg-WRKz7XkZf0ZA6lZmk7XSy8-C2HciWviQ3qfIWU86X8UwkCHvnFabNaQyP2VXWfBg94oWAA_XS-Ex67sFWq-xPnh616UrHjTn21fpjWVXyPBLWMFUytQxMds56frwLOaMCSQggjqTDYQWwNRU7OHJvWsgYh6wWFbzEniiuGM5jAQOVJSxD7jmjWcuK3cDrVoIoYUfvIMrdAB6yJRmr5xCXy5GhJvBS14lPgd_2EMpr6g4bZF6Me3mg5yR4NkGZNFK5KwTVZ4qxvF7qLmWnGuetu5EhiwujWsnxe1VetJRWRJ74zdhHMaLVfErT83ULo18XDvD8DnVkaO6z4bbIOGba7TDk_iGvndd4OzgTVIrizxJQIFEUtgF3nBIsDHROy3KOwXn3l5H-woqnbO-Z-wiw9bvRODdg0dgNmGeJpNCgrQaMvffQhV97GRN_ILKy6GdAHfgavMEzVr_DykTozovd0qwTF1avroAKiZ2dML73oxzbxJMJJYbfbzBM7tx0SO6s9C7jPNlKvoHlIhornNUbxlxB73nASyBjxSPv3ruBTlOuK50_eCgj8Pph4bN5APzGV803zRW7m00?></g></svg>