<svg xmlns="http://www.w3.org/2000/svg" xmlns:xlink="http://www.w3.org/1999/xlink" contentStyleType="text/css" data-diagram-type="DESCRIPTION" height="655px" preserveAspectRatio="none" style="width:1006px;height:655px;background:#FFFFFF;" version="1.1" viewBox="0 0 1006 655" width="1006px" zoomAndPan="magnify"><?plantuml 1.2026.7beta1?><defs/><g><g class="title" data-source-line="1"><text fill="#000000" font-family="sans-serif" font-size="14" font-weight="700" lengthAdjust="spacing" textLength="357.3281" x="320.8359" y="22.9951">Week 02 - Queueing Model: M/M/1 and M/M/2</text></g><!--cluster ARRIVAL--><g class="cluster" data-qualified-name="ARRIVAL" data-source-line="10" id="ent0001"><rect fill="none" height="435" rx="2.5" ry="2.5" style="stroke:#181818;stroke-width:1;" width="143.13" x="7.59" y="44.2969"/><text fill="#000000" font-family="sans-serif" font-size="14" font-weight="700" lengthAdjust="spacing" textLength="123.71" x="17.3" y="59.292">Vehicle Arrivals</text></g><!--cluster QM--><g class="cluster" data-qualified-name="QM" data-source-line="17" id="ent0006"><rect fill="none" height="168" rx="2.5" ry="2.5" style="stroke:#181818;stroke-width:1;" width="561.97" x="182.72" y="111.2969"/><text fill="#000000" font-family="sans-serif" font-size="14" font-weight="700" lengthAdjust="spacing" textLength="162.0186" x="382.6957" y="126.292">RSU Queue Manager</text></g><!--cluster MM1--><g class="cluster" data-qualified-name="MM1" data-source-line="23" id="ent0010"><rect fill="none" height="103" rx="2.5" ry="2.5" style="stroke:#181818;stroke-width:1;" width="359.8" x="350.91" y="311.2969"/><text fill="#000000" font-family="sans-serif" font-size="14" font-weight="700" lengthAdjust="spacing" textLength="100.5703" x="480.5248" y="326.292">M/M/1 Model</text></g><!--cluster MM2--><g class="cluster" data-qualified-name="MM2" data-source-line="28" id="ent0013"><rect fill="none" height="203" rx="2.5" ry="2.5" style="stroke:#181818;stroke-width:1;" width="365.49" x="360.71" y="438.2969"/><text fill="#000000" font-family="sans-serif" font-size="14" font-weight="700" lengthAdjust="spacing" textLength="100.5703" x="493.1698" y="453.292">M/M/2 Model</text></g><!--cluster ZONE--><g class="cluster" data-qualified-name="ZONE" data-source-line="34" id="ent0017"><rect fill="none" height="87" rx="2.5" ry="2.5" style="stroke:#181818;stroke-width:1;" width="215.31" x="776.69" y="386.2969"/><text fill="#000000" font-family="sans-serif" font-size="14" font-weight="700" lengthAdjust="spacing" textLength="200.4639" x="784.1131" y="401.292">Critical Intersection Zone</text></g><!--entity NQ--><g class="entity" data-qualified-name="ARRIVAL.NQ" data-source-line="11" id="ent0002"><rect fill="#F1F1F1" height="36.2969" rx="2.5" ry="2.5" style="stroke:#181818;stroke-width:0.5;" width="109.5986" x="24.36" y="427.1469"/><text fill="#000000" font-family="sans-serif" font-size="14" lengthAdjust="spacing" textLength="89.5986" x="34.36" y="450.142">North Queue</text></g><!--entity SQ--><g class="entity" data-qualified-name="ARRIVAL.SQ" data-source-line="12" id="ent0003"><rect fill="#F1F1F1" height="36.2969" rx="2.5" ry="2.5" style="stroke:#181818;stroke-width:0.5;" width="111.1299" x="23.59" y="311.1469"/><text fill="#000000" font-family="sans-serif" font-size="14" lengthAdjust="spacing" textLength="91.1299" x="33.59" y="334.142">South Queue</text></g><!--entity EQ--><g class="entity" data-qualified-name="ARRIVAL.EQ" data-source-line="13" id="ent0004"><rect fill="#F1F1F1" height="36.2969" rx="2.5" ry="2.5" style="stroke:#181818;stroke-width:0.5;" width="100.6504" x="28.83" y="195.1469"/><text fill="#000000" font-family="sans-serif" font-size="14" lengthAdjust="spacing" textLength="80.6504" x="38.83" y="218.142">East Queue</text></g><!--entity WQ--><g class="entity" data-qualified-name="ARRIVAL.WQ" data-source-line="14" id="ent0005"><rect fill="#F1F1F1" height="36.2969" rx="2.5" ry="2.5" style="stroke:#181818;stroke-width:0.5;" width="105.6816" x="26.31" y="79.1469"/><text fill="#000000" font-family="sans-serif" font-size="14" lengthAdjust="spacing" textLength="85.6816" x="36.31" y="102.142">West Queue</text></g><!--entity FIFO--><g class="entity" data-qualified-name="QM.FIFO" data-source-line="18" id="ent0007"><rect fill="#F1F1F1" height="36.2969" rx="2.5" ry="2.5" style="stroke:#181818;stroke-width:0.5;" width="86.8076" x="206.72" y="154.1469"/><text fill="#000000" font-family="sans-serif" font-size="14" lengthAdjust="spacing" textLength="66.8076" x="216.72" y="177.142">FIFO Rule</text></g><!--entity PRIORITY--><g class="entity" data-qualified-name="QM.PRIORITY" data-source-line="19" id="ent0008"><rect fill="#F1F1F1" height="36.2969" rx="2.5" ry="2.5" style="stroke:#181818;stroke-width:0.5;" width="105.627" x="363.53" y="154.1469"/><text fill="#000000" font-family="sans-serif" font-size="14" lengthAdjust="spacing" textLength="85.627" x="373.53" y="177.142">Priority Rule</text></g><!--entity WAITRULE--><g class="entity" data-qualified-name="QM.WAITRULE" data-source-line="20" id="ent0009"><rect fill="#F1F1F1" height="36.2969" rx="2.5" ry="2.5" style="stroke:#181818;stroke-width:0.5;" width="181.54" x="539.15" y="154.1469"/><text fill="#000000" font-family="sans-serif" font-size="14" lengthAdjust="spacing" textLength="161.54" x="549.15" y="177.142">Max Waiting Time Rule</text></g><!--entity S1--><g class="entity" data-qualified-name="MM1.S1" data-source-line="24" id="ent0011"><rect fill="#F1F1F1" height="36.2969" rx="2.5" ry="2.5" style="stroke:#181818;stroke-width:0.5;" width="98.8662" x="366.91" y="350.1469"/><text fill="#000000" font-family="sans-serif" font-size="14" lengthAdjust="spacing" textLength="78.8662" x="376.91" y="373.142">One Server</text></g><!--entity MM1_RULE--><g class="entity" data-qualified-name="MM1.MM1_RULE" data-source-line="25" id="ent0012"><rect fill="#F1F1F1" height="52.5938" rx="2.5" ry="2.5" style="stroke:#181818;stroke-width:0.5;" width="129.5732" x="565.14" y="345.9969"/><text fill="#000000" font-family="sans-serif" font-size="14" lengthAdjust="spacing" textLength="109.5732" x="575.14" y="368.992">Only one active</text><text fill="#000000" font-family="sans-serif" font-size="14" lengthAdjust="spacing" textLength="58.2559" x="575.14" y="385.2889">crossing</text></g><!--entity S21--><g class="entity" data-qualified-name="MM2.S21" data-source-line="29" id="ent0014"><rect fill="#F1F1F1" height="36.2969" rx="2.5" ry="2.5" style="stroke:#181818;stroke-width:0.5;" width="79.2676" x="376.71" y="589.1469"/><text fill="#000000" font-family="sans-serif" font-size="14" lengthAdjust="spacing" textLength="59.2676" x="386.71" y="612.142">Server 1</text></g><!--entity S22--><g class="entity" data-qualified-name="MM2.S22" data-source-line="30" id="ent0015"><rect fill="#F1F1F1" height="36.2969" rx="2.5" ry="2.5" style="stroke:#181818;stroke-width:0.5;" width="79.2676" x="376.71" y="473.1469"/><text fill="#000000" font-family="sans-serif" font-size="14" lengthAdjust="spacing" textLength="59.2676" x="386.71" y="496.142">Server 2</text></g><!--entity MM2_RULE--><g class="entity" data-qualified-name="MM2.MM2_RULE" data-source-line="31" id="ent0016"><rect fill="#F1F1F1" height="52.5938" rx="2.5" ry="2.5" style="stroke:#181818;stroke-width:0.5;" width="160.5605" x="549.64" y="478.9969"/><text fill="#000000" font-family="sans-serif" font-size="14" lengthAdjust="spacing" textLength="140.5605" x="559.64" y="501.992">Only non-conflicting</text><text fill="#000000" font-family="sans-serif" font-size="14" lengthAdjust="spacing" textLength="85.4355" x="559.64" y="518.2889">pair allowed</text></g><!--entity CROSS--><g class="entity" data-qualified-name="ZONE.CROSS" data-source-line="35" id="ent0018"><rect fill="#F1F1F1" height="36.2969" rx="2.5" ry="2.5" style="stroke:#181818;stroke-width:0.5;" width="117.3096" x="825.69" y="421.1469"/><text fill="#000000" font-family="sans-serif" font-size="14" lengthAdjust="spacing" textLength="97.3096" x="835.69" y="444.142">Crossing Area</text></g><!--link NQ to QM--><g class="link" data-entity-1="ent0002" data-entity-2="ent0006" data-link-type="dependency" data-source-line="38" id="lnk19"><path d="M134.44,437.2469 C153.89,437.2469 171,437.2469 171,437.2469 C171,437.2469 171,271.6269 171,271.6269 C171,271.6269 175.4925,271.6269 182.3366,271.6269 C182.4435,271.6269 177.551,271.6269 177.6591,271.6269" fill="none" id="NQ-to-QM" style="stroke:#181818;stroke-width:1;"/><polygon fill="#181818" points="182.6591,271.6269,173.6591,267.6269,177.6591,271.6269,173.6591,275.6269,182.6591,271.6269" style="stroke:#181818;stroke-width:1;stroke-linejoin:miter;stroke-miterlimit:10;"/></g><!--link SQ to QM--><g class="link" data-entity-1="ent0003" data-entity-2="ent0006" data-link-type="dependency" data-source-line="39" id="lnk20"><path d="M135.1,328.5769 C184.92,328.5769 250,328.5769 250,328.5769 C250,328.5769 250,315.9919 250,302.6194 C250,295.9331 250,289.05 250,283.4447 C250,282.0434 250,285.7219 250,284.5033" fill="none" id="SQ-to-QM" style="stroke:#181818;stroke-width:1;"/><polygon fill="#181818" points="250,279.5033,246,288.5033,250,284.5033,254,288.5033,250,279.5033" style="stroke:#181818;stroke-width:1;stroke-linejoin:miter;stroke-miterlimit:10;"/></g><!--link EQ to QM--><g class="link" data-entity-1="ent0004" data-entity-2="ent0006" data-link-type="dependency" data-source-line="40" id="lnk21"><path d="M129.79,213.2969 C142.4625,213.2969 156.3744,213.2969 170.1139,213.2969 C173.5488,213.2969 176.9729,213.2969 180.3642,213.2969 C180.7881,213.2969 181.2115,213.2969 181.6343,213.2969 C181.8458,213.2969 177.057,213.2969 177.2682,213.2969" fill="none" id="EQ-to-QM" style="stroke:#181818;stroke-width:1;"/><polygon fill="#181818" points="182.2682,213.2969,173.2682,209.2969,177.2682,213.2969,173.2682,217.2969,182.2682,213.2969" style="stroke:#181818;stroke-width:1;stroke-linejoin:miter;stroke-miterlimit:10;"/></g><!--link WQ to QM--><g class="link" data-entity-1="ent0005" data-entity-2="ent0006" data-link-type="dependency" data-source-line="41" id="lnk22"><path d="M25.99,97.2969 C14.65,97.2969 6,97.2969 6,97.2969 C6,97.2969 6,270.9669 6,270.9669 C6,270.9669 63.275,270.9669 122.34,270.9669 C137.1063,270.9669 151.9844,270.9669 166.1074,270.9669 C169.6382,270.9669 173.1218,270.9669 176.5446,270.9669 C178.256,270.9669 174.9522,270.9669 176.6316,270.9669" fill="none" id="WQ-to-QM" style="stroke:#181818;stroke-width:1;"/><polygon fill="#181818" points="181.6316,270.9669,172.6316,266.9669,176.6316,270.9669,172.6316,274.9669,181.6316,270.9669" style="stroke:#181818;stroke-width:1;stroke-linejoin:miter;stroke-miterlimit:10;"/></g><!--link FIFO to PRIORITY--><g class="link" data-entity-1="ent0007" data-entity-2="ent0008" data-link-type="dependency" data-source-line="43" id="lnk23"><path d="M293.8,172.2969 C315.05,172.2969 335.79,172.2969 358.18,172.2969" fill="none" id="FIFO-to-PRIORITY" style="stroke:#181818;stroke-width:1;"/><polygon fill="#181818" points="363.18,172.2969,354.18,168.2969,358.18,172.2969,354.18,176.2969,363.18,172.2969" style="stroke:#181818;stroke-width:1;stroke-linejoin:miter;stroke-miterlimit:10;"/></g><!--link PRIORITY to WAITRULE--><g class="link" data-entity-1="ent0008" data-entity-2="ent0009" data-link-type="dependency" data-source-line="44" id="lnk24"><path d="M469.41,172.2969 C490.41,172.2969 510.17,172.2969 533.86,172.2969" fill="none" id="PRIORITY-to-WAITRULE" style="stroke:#181818;stroke-width:1;"/><polygon fill="#181818" points="538.86,172.2969,529.86,168.2969,533.86,172.2969,529.86,176.2969,538.86,172.2969" style="stroke:#181818;stroke-width:1;stroke-linejoin:miter;stroke-miterlimit:10;"/></g><!--link QM to S1--><g class="link" data-entity-1="ent0006" data-entity-2="ent0011" data-link-type="dependency" data-source-line="46" id="lnk25"><path d="M417,279.3495 C417,284.5553 417,291.79 417,299.9056 C417,316.1369 417,330.8919 417,344.9869" fill="none" id="QM-to-S1" style="stroke:#181818;stroke-width:1;"/><polygon fill="#181818" points="417,349.9869,421,340.9869,417,344.9869,413,340.9869,417,349.9869" style="stroke:#181818;stroke-width:1;stroke-linejoin:miter;stroke-miterlimit:10;"/><text fill="#000000" font-family="sans-serif" font-size="13" lengthAdjust="spacing" textLength="80.4629" x="292.45" y="284.0338">M/M/1 mode</text></g><!--link S1 to MM1_RULE--><g class="link" data-entity-1="ent0011" data-entity-2="ent0012" data-link-type="dependency" data-source-line="47" id="lnk26"><path d="M466.15,368.2969 C495.61,368.2969 528.25,368.2969 560.02,368.2969" fill="none" id="S1-to-MM1_RULE" style="stroke:#181818;stroke-width:1;"/><polygon fill="#181818" points="565.02,368.2969,556.02,364.2969,560.02,368.2969,556.02,372.2969,565.02,368.2969" style="stroke:#181818;stroke-width:1;stroke-linejoin:miter;stroke-miterlimit:10;"/></g><!--link MM1_RULE to CROSS--><g class="link" data-entity-1="ent0012" data-entity-2="ent0018" data-link-type="dependency" data-source-line="48" id="lnk27"><path d="M694.95,372.2969 C770.53,372.2969 885,372.2969 885,372.2969 C885,372.2969 885,396.1469 885,415.9869" fill="none" id="MM1_RULE-to-CROSS" style="stroke:#181818;stroke-width:1;"/><polygon fill="#181818" points="885,420.9869,889,411.9869,885,415.9869,881,411.9869,885,420.9869" style="stroke:#181818;stroke-width:1;stroke-linejoin:miter;stroke-miterlimit:10;"/></g><!--link QM to S21--><g class="link" data-entity-1="ent0006" data-entity-2="ent0014" data-link-type="dependency" data-source-line="50" id="lnk28"><path d="M273,279.9244 C273,281.7068 273,283.7556 273,286.0502 C273,295.2287 273,308.3408 273,324.0753 C273,355.5444 273,397.5031 273,439.4619 C273,523.3794 273,607.2969 273,607.2969 C273,607.2969 329,607.2969 371.41,607.2969" fill="none" id="QM-to-S21" style="stroke:#181818;stroke-width:1;"/><polygon fill="#181818" points="376.41,607.2969,367.41,603.2969,371.41,607.2969,367.41,611.2969,376.41,607.2969" style="stroke:#181818;stroke-width:1;stroke-linejoin:miter;stroke-miterlimit:10;"/><text fill="#000000" font-family="sans-serif" font-size="13" lengthAdjust="spacing" textLength="80.4629" x="192" y="493.0738">M/M/2 mode</text></g><!--link QM to S22--><g class="link" data-entity-1="ent0006" data-entity-2="ent0015" data-link-type="dependency" data-source-line="51" id="lnk29"><path d="M251,279.4371 C251,279.7831 251,280.139 251,280.5048 C251,281.2363 251,282.007 251,282.8153 C251,289.2818 251,298.1555 251,308.6166 C251,329.5388 251,356.8106 251,383.8744 C251,438.0019 251,491.2969 251,491.2969 C251,491.2969 322.39,491.2969 371.32,491.2969" fill="none" id="QM-to-S22" style="stroke:#181818;stroke-width:1;"/><polygon fill="#181818" points="376.32,491.2969,367.32,487.2969,371.32,491.2969,367.32,495.2969,376.32,491.2969" style="stroke:#181818;stroke-width:1;stroke-linejoin:miter;stroke-miterlimit:10;"/><text fill="#000000" font-family="sans-serif" font-size="13" lengthAdjust="spacing" textLength="80.4629" x="170" y="457.1038">M/M/2 mode</text></g><!--link S21 to MM2_RULE--><g class="link" data-entity-1="ent0014" data-entity-2="ent0016" data-link-type="dependency" data-source-line="52" id="lnk30"><path d="M417,588.8969 C417,563.4169 417,520.5169 417,520.5169 C417,520.5169 484.13,520.5169 544.43,520.5169" fill="none" id="S21-to-MM2_RULE" style="stroke:#181818;stroke-width:1;"/><polygon fill="#181818" points="549.43,520.5169,540.43,516.5169,544.43,520.5169,540.43,524.5169,549.43,520.5169" style="stroke:#181818;stroke-width:1;stroke-linejoin:miter;stroke-miterlimit:10;"/></g><!--link S22 to MM2_RULE--><g class="link" data-entity-1="ent0015" data-entity-2="ent0016" data-link-type="dependency" data-source-line="53" id="lnk31"><path d="M456.26,494.2269 C482.46,494.2269 512.65,494.2269 544.5,494.2269" fill="none" id="S22-to-MM2_RULE" style="stroke:#181818;stroke-width:1;"/><polygon fill="#181818" points="549.5,494.2269,540.5,490.2269,544.5,494.2269,540.5,498.2269,549.5,494.2269" style="stroke:#181818;stroke-width:1;stroke-linejoin:miter;stroke-miterlimit:10;"/></g><!--link MM2_RULE to CROSS--><g class="link" data-entity-1="ent0016" data-entity-2="ent0018" data-link-type="dependency" data-source-line="54" id="lnk32"><path d="M703,478.6969 C703,463.4669 703,447.3469 703,447.3469 C703,447.3469 767.3,447.3469 820.22,447.3469" fill="none" id="MM2_RULE-to-CROSS" style="stroke:#181818;stroke-width:1;"/><polygon fill="#181818" points="825.22,447.3469,816.22,443.3469,820.22,447.3469,816.22,451.3469,825.22,447.3469" style="stroke:#181818;stroke-width:1;stroke-linejoin:miter;stroke-miterlimit:10;"/></g><?plantuml-src TLDDQ-Cm4BthLmozXyQwxBA7XH1SCDHnRQSrMmf5s9D4H962hAGRbltlgu_OiKtsDfhtDEzfPcIu4GWLuXxc56QGd_24N6uXLGsA7v0-feyHCDduY18YS6F0AD1ykpFGS8sruKeIqkwvF3BD3Y2uH7Cv8YXjTce0j3lMg2zNVSD4YmD4MhKMZ_1zFaXg9lSk-MrEY9DXSckzFhpXZjSsM6ZDpxRE0x0M5aMHl2sUuGy1671Npa9ubAUjyZ5UgjC8BoTup5epWEC9NE48hdBoTsIrA5y332cJR8lQq_9qQlCfUSgWE8bGnft6-8lcIdDpkN5UYYGhalMlCIzblw5YtBWMh_a1R_ngaQoBr-TuOZ2Cry_Qqz8qcdhB94A9-dmrNqPJM5n0MGwpUt363rbhrRRMG5Vlyp-oT2HBfx914g8WIgExABsYz8udgUIiLd8ZUEtwyM6NYcjWGgWlR3hLU-QMjjEyPW8IQL2tOR_XtRxHtthFLl7KxFBwPhkJo3nhMMHbwGglSfZDVjgPaxAFuZwg-eZu7N27VhHTuBFz08bT7vSe8-Y-vy4sajYpI_STxmAV3NRwgxIxIyFTFa_7UKSCHQ-TSenHeWjkAly0?></g></svg>