<svg xmlns="http://www.w3.org/2000/svg" xmlns:xlink="http://www.w3.org/1999/xlink" contentStyleType="text/css" data-diagram-type="DESCRIPTION" height="1050px" preserveAspectRatio="none" style="width:1904px;height:1050px;background:#FFFFFF;" version="1.1" viewBox="0 0 1904 1050" width="1904px" zoomAndPan="magnify"><?plantuml 1.2026.7beta1?><defs/><g><g class="title" data-source-line="1"><text fill="#000000" font-family="sans-serif" font-size="14" font-weight="700" lengthAdjust="spacing" textLength="461.5488" x="717.7256" y="22.9951">RSU-Based Autonomous Intersection Management System</text></g><!--cluster VEHICLE_LAYER--><g class="cluster" data-qualified-name="VEHICLE_LAYER" data-source-line="16" id="ent0001"><rect fill="none" height="487.78" rx="4" ry="4" style="stroke:#181818;stroke-width:1;" width="495" x="126" y="44.2969"/><text fill="#000000" font-family="sans-serif" font-size="14" font-weight="700" lengthAdjust="spacing" textLength="106.4561" x="320.272" y="59.292">Vehicle Layer</text></g><!--cluster EV--><g class="cluster" data-qualified-name="VEHICLE_LAYER.EV" data-source-line="18" id="ent0002"><rect fill="none" height="119.59" rx="4" ry="4" style="stroke:#181818;stroke-width:1;" width="431" x="158" y="95.2969"/><text fill="#000000" font-family="sans-serif" font-size="14" font-weight="700" lengthAdjust="spacing" textLength="150.0215" x="298.4893" y="110.292">Emergency Vehicle</text></g><!--cluster NV--><g class="cluster" data-qualified-name="VEHICLE_LAYER.NV" data-source-line="25" id="ent0006"><rect fill="none" height="119.6" rx="4" ry="4" style="stroke:#181818;stroke-width:1;" width="391" x="198" y="380.4769"/><text fill="#000000" font-family="sans-serif" font-size="14" font-weight="700" lengthAdjust="spacing" textLength="119.6357" x="333.6821" y="395.472">Normal Vehicle</text></g><!--cluster RSU--><g class="cluster" data-qualified-name="RSU" data-source-line="32" id="ent0009"><rect fill="none" height="440.78" rx="4" ry="4" style="stroke:#181818;stroke-width:1;" width="576" x="353" y="564.0769"/><text fill="#000000" font-family="sans-serif" font-size="14" font-weight="700" lengthAdjust="spacing" textLength="226.5088" x="527.7456" y="579.072">RSU / Intersection Controller</text></g><!--cluster OUTPUT--><g class="cluster" data-qualified-name="OUTPUT" data-source-line="44" id="ent0017"><rect fill="none" height="361.19" rx="4" ry="4" style="stroke:#181818;stroke-width:1;" width="929" x="961" y="675.6669"/><text fill="#000000" font-family="sans-serif" font-size="14" font-weight="700" lengthAdjust="spacing" textLength="210.6152" x="1320.1924" y="690.662">Output / Verification Layer</text></g><!--cluster MON--><g class="cluster" data-qualified-name="OUTPUT.MON" data-source-line="46" id="ent0018"><rect fill="none" height="261.89" rx="4" ry="4" style="stroke:#181818;stroke-width:1;" width="423" x="993" y="734.8169"/><text fill="#000000" font-family="sans-serif" font-size="14" font-weight="700" lengthAdjust="spacing" textLength="94.7461" x="1157.127" y="749.812">Simulation /</text><text fill="#000000" font-family="sans-serif" font-size="14" font-weight="700" lengthAdjust="spacing" textLength="61.5303" x="1173.7349" y="766.1089">Monitor</text></g><!--cluster FUTURE--><g class="cluster" data-qualified-name="OUTPUT.FUTURE" data-source-line="52" id="ent0022"><rect fill="none" height="278.19" rx="4" ry="4" style="stroke:#181818;stroke-width:1;" width="389" x="1469" y="726.6669"/><text fill="#000000" font-family="sans-serif" font-size="14" font-weight="700" lengthAdjust="spacing" textLength="52.5889" x="1637.2056" y="741.662">Future</text><text fill="#000000" font-family="sans-serif" font-size="14" font-weight="700" lengthAdjust="spacing" textLength="125.3779" x="1600.811" y="757.9589">Implementation</text></g><!--entity V2V_CHANNEL--><g class="entity" data-qualified-name="VEHICLE_LAYER.V2V_CHANNEL" data-source-line="23" id="ent0005"><rect fill="#F1F1F1" height="52.5938" rx="4" ry="4" style="stroke:#181818;stroke-width:0.5;" width="155.5908" x="223.2" y="280.8869"/><text fill="#000000" font-family="sans-serif" font-size="14" lengthAdjust="spacing" textLength="89.9883" x="233.2" y="303.882">V2V Channel</text><text fill="#000000" font-family="sans-serif" font-size="14" lengthAdjust="spacing" textLength="135.5908" x="233.2" y="320.1789">Emergency Beacon</text></g><!--entity EV_V2I--><g class="entity" data-qualified-name="VEHICLE_LAYER.EV.EV_V2I" data-source-line="19" id="ent0003"><rect fill="#F1F1F1" height="52.5938" rx="4" ry="4" style="stroke:#181818;stroke-width:0.5;" width="97.1367" x="467.43" y="138.2969"/><text fill="#000000" font-family="sans-serif" font-size="14" lengthAdjust="spacing" textLength="77.1367" x="477.43" y="161.292">V2I Priority</text><text fill="#000000" font-family="sans-serif" font-size="14" lengthAdjust="spacing" textLength="57.4971" x="477.43" y="177.5889">Request</text></g><!--entity EV_V2V--><g class="entity" data-qualified-name="VEHICLE_LAYER.EV.EV_V2V" data-source-line="20" id="ent0004"><rect fill="#F1F1F1" height="52.5938" rx="4" ry="4" style="stroke:#181818;stroke-width:0.5;" width="131.7197" x="251.14" y="138.2969"/><text fill="#000000" font-family="sans-serif" font-size="14" lengthAdjust="spacing" textLength="111.7197" x="261.14" y="161.292">V2V Emergency</text><text fill="#000000" font-family="sans-serif" font-size="14" lengthAdjust="spacing" textLength="106.0117" x="261.14" y="177.5889">Beacon Sender</text></g><!--entity NV_REQ--><g class="entity" data-qualified-name="VEHICLE_LAYER.NV.NV_REQ" data-source-line="26" id="ent0007"><rect fill="#F1F1F1" height="52.5938" rx="4" ry="4" style="stroke:#181818;stroke-width:0.5;" width="107.3975" x="291.3" y="423.4769"/><text fill="#000000" font-family="sans-serif" font-size="14" lengthAdjust="spacing" textLength="87.3975" x="301.3" y="446.472">V2I Crossing</text><text fill="#000000" font-family="sans-serif" font-size="14" lengthAdjust="spacing" textLength="57.4971" x="301.3" y="462.7689">Request</text></g><!--entity NV_DONE--><g class="entity" data-qualified-name="VEHICLE_LAYER.NV.NV_DONE" data-source-line="27" id="ent0008"><rect fill="#F1F1F1" height="52.5938" rx="4" ry="4" style="stroke:#181818;stroke-width:0.5;" width="81.3594" x="483.32" y="423.4769"/><text fill="#000000" font-family="sans-serif" font-size="14" lengthAdjust="spacing" textLength="41.1182" x="493.32" y="446.472">DONE</text><text fill="#000000" font-family="sans-serif" font-size="14" lengthAdjust="spacing" textLength="61.3594" x="493.32" y="462.7689">Message</text></g><!--entity COMM--><g class="entity" data-qualified-name="RSU.COMM" data-source-line="34" id="ent0010"><rect fill="#F1F1F1" height="52.5938" rx="4" ry="4" style="stroke:#181818;stroke-width:0.5;" width="130.3457" x="376.83" y="607.0769"/><text fill="#000000" font-family="sans-serif" font-size="14" lengthAdjust="spacing" textLength="110.3457" x="386.83" y="630.072">Communication</text><text fill="#000000" font-family="sans-serif" font-size="14" lengthAdjust="spacing" textLength="61.3662" x="386.83" y="646.3689">Manager</text></g><!--entity QUEUE--><g class="entity" data-qualified-name="RSU.QUEUE" data-source-line="35" id="ent0011"><rect fill="#F1F1F1" height="52.5938" rx="4" ry="4" style="stroke:#181818;stroke-width:0.5;" width="81.3662" x="592.32" y="607.0769"/><text fill="#000000" font-family="sans-serif" font-size="14" lengthAdjust="spacing" textLength="45.9922" x="602.32" y="630.072">Queue</text><text fill="#000000" font-family="sans-serif" font-size="14" lengthAdjust="spacing" textLength="61.3662" x="602.32" y="646.3689">Manager</text></g><!--entity EMH--><g class="entity" data-qualified-name="RSU.EMH" data-source-line="36" id="ent0012"><rect fill="#F1F1F1" height="52.5938" rx="4" ry="4" style="stroke:#181818;stroke-width:0.5;" width="99.208" x="543.4" y="785.6669"/><text fill="#000000" font-family="sans-serif" font-size="14" lengthAdjust="spacing" textLength="79.208" x="553.4" y="808.662">Emergency</text><text fill="#000000" font-family="sans-serif" font-size="14" lengthAdjust="spacing" textLength="55.125" x="553.4" y="824.9589">Handler</text></g><!--entity CONFLICT--><g class="entity" data-qualified-name="RSU.CONFLICT" data-source-line="37" id="ent0013"><rect fill="#F1F1F1" height="52.5938" rx="4" ry="4" style="stroke:#181818;stroke-width:0.5;" width="77.4355" x="758.28" y="607.0769"/><text fill="#000000" font-family="sans-serif" font-size="14" lengthAdjust="spacing" textLength="53.1084" x="768.28" y="630.072">Conflict</text><text fill="#000000" font-family="sans-serif" font-size="14" lengthAdjust="spacing" textLength="57.4355" x="768.28" y="646.3689">Checker</text></g><!--entity SCHED--><g class="entity" data-qualified-name="RSU.SCHED" data-source-line="38" id="ent0014"><rect fill="#F1F1F1" height="36.2969" rx="4" ry="4" style="stroke:#181818;stroke-width:0.5;" width="90.0889" x="727.96" y="793.8169"/><text fill="#000000" font-family="sans-serif" font-size="14" lengthAdjust="spacing" textLength="70.0889" x="737.96" y="816.812">Scheduler</text></g><!--entity TIMER--><g class="entity" data-qualified-name="RSU.TIMER" data-source-line="39" id="ent0015"><rect fill="#F1F1F1" height="52.5938" rx="4" ry="4" style="stroke:#181818;stroke-width:0.5;" width="81.3662" x="732.32" y="928.2669"/><text fill="#000000" font-family="sans-serif" font-size="14" lengthAdjust="spacing" textLength="40.4482" x="742.32" y="951.262">Timer</text><text fill="#000000" font-family="sans-serif" font-size="14" lengthAdjust="spacing" textLength="61.3662" x="742.32" y="967.5589">Manager</text></g><!--entity GRANT--><g class="entity" data-qualified-name="RSU.GRANT" data-source-line="40" id="ent0016"><rect fill="#F1F1F1" height="52.5938" rx="4" ry="4" style="stroke:#181818;stroke-width:0.5;" width="81.3662" x="377.32" y="785.6669"/><text fill="#000000" font-family="sans-serif" font-size="14" lengthAdjust="spacing" textLength="39.5459" x="387.32" y="808.662">Grant</text><text fill="#000000" font-family="sans-serif" font-size="14" lengthAdjust="spacing" textLength="61.3662" x="387.32" y="824.9589">Manager</text></g><!--entity MON_Q--><g class="entity" data-qualified-name="OUTPUT.MON.MON_Q" data-source-line="47" id="ent0019"><rect fill="#F1F1F1" height="36.2969" rx="4" ry="4" style="stroke:#181818;stroke-width:0.5;" width="107.5" x="1017.25" y="793.8169"/><text fill="#000000" font-family="sans-serif" font-size="14" lengthAdjust="spacing" textLength="87.5" x="1027.25" y="816.812">Queue State</text></g><!--entity MON_W--><g class="entity" data-qualified-name="OUTPUT.MON.MON_W" data-source-line="48" id="ent0020"><rect fill="#F1F1F1" height="36.2969" rx="4" ry="4" style="stroke:#181818;stroke-width:0.5;" width="112.5928" x="1209.7" y="793.8169"/><text fill="#000000" font-family="sans-serif" font-size="14" lengthAdjust="spacing" textLength="92.5928" x="1219.7" y="816.812">Waiting Time</text></g><!--entity MON_G--><g class="entity" data-qualified-name="OUTPUT.MON.MON_G" data-source-line="49" id="ent0021"><rect fill="#F1F1F1" height="36.2969" rx="4" ry="4" style="stroke:#181818;stroke-width:0.5;" width="107.5479" x="1017.23" y="936.4069"/><text fill="#000000" font-family="sans-serif" font-size="14" lengthAdjust="spacing" textLength="87.5479" x="1027.23" y="959.402">Active Grant</text></g><!--entity UPP--><g class="entity" data-qualified-name="OUTPUT.FUTURE.UPP" data-source-line="53" id="ent0023"><rect fill="#F1F1F1" height="52.5938" rx="4" ry="4" style="stroke:#181818;stroke-width:0.5;" width="74.0859" x="1492.96" y="785.6669"/><text fill="#000000" font-family="sans-serif" font-size="14" lengthAdjust="spacing" textLength="54.0859" x="1502.96" y="808.662">UPPAAL</text><text fill="#000000" font-family="sans-serif" font-size="14" lengthAdjust="spacing" textLength="42.0342" x="1502.96" y="824.9589">Model</text></g><!--entity FRTOS--><g class="entity" data-qualified-name="OUTPUT.FUTURE.FRTOS" data-source-line="54" id="ent0024"><rect fill="#F1F1F1" height="36.2969" rx="4" ry="4" style="stroke:#181818;stroke-width:0.5;" width="112.6133" x="1651.69" y="793.8169"/><text fill="#000000" font-family="sans-serif" font-size="14" lengthAdjust="spacing" textLength="92.6133" x="1661.69" y="816.812">C / FreeRTOS</text></g><!--entity FPGA--><g class="entity" data-qualified-name="OUTPUT.FUTURE.FPGA" data-source-line="55" id="ent0025"><rect fill="#F1F1F1" height="52.5938" rx="4" ry="4" style="stroke:#181818;stroke-width:0.5;" width="97.6152" x="1493.19" y="928.2669"/><text fill="#000000" font-family="sans-serif" font-size="14" lengthAdjust="spacing" textLength="77.6152" x="1503.19" y="951.262">ModelSim /</text><text fill="#000000" font-family="sans-serif" font-size="14" lengthAdjust="spacing" textLength="36.9209" x="1503.19" y="967.5589">FPGA</text></g><!--link EV_V2V to V2V_CHANNEL--><g class="link" data-entity-1="ent0004" data-entity-2="ent0005" data-link-type="dependency" data-source-line="60" id="lnk26"><path d="M314.97,191.0769 C314.97,216.6869 314.97,250.2769 314.97,275.8369" fill="none" id="EV_V2V-to-V2V_CHANNEL" style="stroke:#181818;stroke-width:1;"/><polygon fill="#181818" points="314.97,280.8369,318.97,271.8369,314.97,275.8369,310.97,271.8369,314.97,280.8369" style="stroke:#181818;stroke-width:1;stroke-linejoin:miter;stroke-miterlimit:10;"/></g><!--link V2V_CHANNEL to NV--><g class="link" data-entity-1="ent0005" data-entity-2="ent0006" data-link-type="dependency" data-source-line="61" id="lnk27"><path d="M222.98,307.8569 C212.9,307.8569 206,307.8569 206,307.8569 C206,307.8569 206,341.1544 206,375.4919 C206,376.5649 206,377.639 206,378.7131 C206,379.2501 206,374.7872 206,375.3241" fill="none" id="V2V_CHANNEL-to-NV" style="stroke:#181818;stroke-width:1;"/><polygon fill="#181818" points="206,380.3241,210,371.3241,206,375.3241,202,371.3241,206,380.3241" style="stroke:#181818;stroke-width:1;stroke-linejoin:miter;stroke-miterlimit:10;"/><text fill="#000000" font-family="sans-serif" font-size="13" lengthAdjust="spacing" textLength="109.5669" x="96" y="366.1938">yield / clear path</text></g><!--link NV_REQ to COMM--><g class="link" data-entity-1="ent0007" data-entity-2="ent0010" data-link-type="dependency" data-source-line="64" id="lnk28"><path d="M387.76,476.4769 C387.76,511.2869 387.76,566.8169 387.76,601.6469" fill="none" id="NV_REQ-to-COMM" style="stroke:#181818;stroke-width:1;"/><polygon fill="#181818" points="387.76,606.6469,391.76,597.6469,387.76,601.6469,383.76,597.6469,387.76,606.6469" style="stroke:#181818;stroke-width:1;stroke-linejoin:miter;stroke-miterlimit:10;"/><text fill="#000000" font-family="sans-serif" font-size="13" lengthAdjust="spacing" textLength="27.479" x="359.76" y="537.6238">REQ</text></g><!--link NV_DONE to COMM--><g class="link" data-entity-1="ent0008" data-entity-2="ent0010" data-link-type="dependency" data-source-line="65" id="lnk29"><path d="M495.25,476.4769 C495.25,511.2869 495.25,566.8169 495.25,601.6469" fill="none" id="NV_DONE-to-COMM" style="stroke:#181818;stroke-width:1;"/><polygon fill="#181818" points="495.25,606.6469,499.25,597.6469,495.25,601.6469,491.25,597.6469,495.25,606.6469" style="stroke:#181818;stroke-width:1;stroke-linejoin:miter;stroke-miterlimit:10;"/><text fill="#000000" font-family="sans-serif" font-size="13" lengthAdjust="spacing" textLength="38.1812" x="456.25" y="537.6238">DONE</text></g><!--link EV_V2I to COMM--><g class="link" data-entity-1="ent0003" data-entity-2="ent0010" data-link-type="dependency" data-source-line="66" id="lnk30"><path d="M475.38,191.1369 C475.38,273.5469 475.38,519.4169 475.38,601.8269" fill="none" id="EV_V2I-to-COMM" style="stroke:#181818;stroke-width:1;"/><polygon fill="#181818" points="475.38,606.8269,479.38,597.8269,475.38,601.8269,471.38,597.8269,475.38,606.8269" style="stroke:#181818;stroke-width:1;stroke-linejoin:miter;stroke-miterlimit:10;"/><text fill="#000000" font-family="sans-serif" font-size="13" lengthAdjust="spacing" textLength="115.686" x="359.38" y="412.0538">EMERGENCY_REQ</text></g><!--link COMM to QUEUE--><g class="link" data-entity-1="ent0010" data-entity-2="ent0011" data-link-type="dependency" data-source-line="69" id="lnk31"><path d="M507.46,624.8569 C535.43,624.8569 562.23,624.8569 586.82,624.8569" fill="none" id="COMM-to-QUEUE" style="stroke:#181818;stroke-width:1;"/><polygon fill="#181818" points="591.82,624.8569,582.82,620.8569,586.82,624.8569,582.82,628.8569,591.82,624.8569" style="stroke:#181818;stroke-width:1;stroke-linejoin:miter;stroke-miterlimit:10;"/><text fill="#000000" font-family="sans-serif" font-size="13" lengthAdjust="spacing" textLength="99.6138" x="500.14" y="637.9238">normal request</text></g><!--link COMM to EMH--><g class="link" data-entity-1="ent0010" data-entity-2="ent0012" data-link-type="dependency" data-source-line="70" id="lnk32"><path d="M507.5,642.8569 C532.01,642.8569 554.04,642.8569 554.04,642.8569 C554.04,642.8569 554.04,732.4869 554.04,780.1669" fill="none" id="COMM-to-EMH" style="stroke:#181818;stroke-width:1;"/><polygon fill="#181818" points="554.04,785.1669,558.04,776.1669,554.04,780.1669,550.04,776.1669,554.04,785.1669" style="stroke:#181818;stroke-width:1;stroke-linejoin:miter;stroke-miterlimit:10;"/><text fill="#000000" font-family="sans-serif" font-size="13" lengthAdjust="spacing" textLength="127.1689" x="426.04" y="686.8138">emergency request</text></g><!--link QUEUE to CONFLICT--><g class="link" data-entity-1="ent0011" data-entity-2="ent0013" data-link-type="dependency" data-source-line="72" id="lnk33"><path d="M673.96,633.8569 C699.67,633.8569 727.64,633.8569 752.97,633.8569" fill="none" id="QUEUE-to-CONFLICT" style="stroke:#181818;stroke-width:1;"/><polygon fill="#181818" points="757.97,633.8569,748.97,629.8569,752.97,633.8569,748.97,637.8569,757.97,633.8569" style="stroke:#181818;stroke-width:1;stroke-linejoin:miter;stroke-miterlimit:10;"/><text fill="#000000" font-family="sans-serif" font-size="13" lengthAdjust="spacing" textLength="99.4106" x="666.47" y="646.9238">queued vehicle</text></g><!--link EMH to SCHED--><g class="link" data-entity-1="ent0012" data-entity-2="ent0014" data-link-type="dependency" data-source-line="73" id="lnk34"><path d="M642.66,812.8569 C669.2,812.8569 696.63,812.8569 722.51,812.8569" fill="none" id="EMH-to-SCHED" style="stroke:#181818;stroke-width:1;"/><polygon fill="#181818" points="727.51,812.8569,718.51,808.8569,722.51,812.8569,718.51,816.8569,727.51,812.8569" style="stroke:#181818;stroke-width:1;stroke-linejoin:miter;stroke-miterlimit:10;"/><text fill="#000000" font-family="sans-serif" font-size="13" lengthAdjust="spacing" textLength="87.9087" x="641.58" y="825.9238">priority mode</text></g><!--link CONFLICT to SCHED--><g class="link" data-entity-1="ent0013" data-entity-2="ent0014" data-link-type="dependency" data-source-line="74" id="lnk35"><path d="M788.16,660.1069 C788.16,696.8969 788.16,757.1369 788.16,788.7669" fill="none" id="CONFLICT-to-SCHED" style="stroke:#181818;stroke-width:1;"/><polygon fill="#181818" points="788.16,793.7669,792.16,784.7669,788.16,788.7669,784.16,784.7669,788.16,793.7669" style="stroke:#181818;stroke-width:1;stroke-linejoin:miter;stroke-miterlimit:10;"/><text fill="#000000" font-family="sans-serif" font-size="13" lengthAdjust="spacing" textLength="89.5146" x="698.16" y="723.0038">safe path info</text></g><!--link SCHED to TIMER--><g class="link" data-entity-1="ent0014" data-entity-2="ent0015" data-link-type="dependency" data-source-line="75" id="lnk36"><path d="M786.56,830.6069 C786.56,855.4469 786.56,894.5469 786.56,922.8969" fill="none" id="SCHED-to-TIMER" style="stroke:#181818;stroke-width:1;"/><polygon fill="#181818" points="786.56,927.8969,790.56,918.8969,786.56,922.8969,782.56,918.8969,786.56,927.8969" style="stroke:#181818;stroke-width:1;stroke-linejoin:miter;stroke-miterlimit:10;"/><text fill="#000000" font-family="sans-serif" font-size="13" lengthAdjust="spacing" textLength="114.4863" x="671.56" y="875.3138">start / check time</text></g><!--link SCHED to GRANT--><g class="link" data-entity-1="ent0014" data-entity-2="ent0016" data-link-type="dependency" data-source-line="76" id="lnk37"><path d="M759.44,830.4769 C759.44,851.7769 759.44,883.8569 759.44,883.8569 C759.44,883.8569 418,883.8569 418,883.8569 C418,883.8569 418,864.1769 418,843.7369" fill="none" id="SCHED-to-GRANT" style="stroke:#181818;stroke-width:1;"/><polygon fill="#181818" points="418,838.7369,414,847.7369,418,843.7369,422,847.7369,418,838.7369" style="stroke:#181818;stroke-width:1;stroke-linejoin:miter;stroke-miterlimit:10;"/><text fill="#000000" font-family="sans-serif" font-size="13" lengthAdjust="spacing" textLength="53.5869" x="538.85" y="879.9238">decision</text></g><!--reverse link NV to GRANT--><g class="link" data-entity-1="ent0006" data-entity-2="ent0016" data-link-type="dependency" data-source-line="79" id="lnk39"><path d="M206,506.5133 C206,507.5118 206,505.0107 206,506.0299 C206,508.0684 206,510.1477 206,512.2653 C206,546.1475 206,589.8406 206,633.0394 C206,719.4369 206,803.8569 206,803.8569 C206,803.8569 315.22,803.8569 376.87,803.8569" fill="none" id="NV-backto-GRANT" style="stroke:#181818;stroke-width:1;"/><polygon fill="#181818" points="206,501.5133,202,510.5133,206,506.5133,210,510.5133,206,501.5133" style="stroke:#181818;stroke-width:1;stroke-linejoin:miter;stroke-miterlimit:10;"/><text fill="#000000" font-family="sans-serif" font-size="13" lengthAdjust="spacing" textLength="140.3657" x="65" y="708.6038">GRANT / WAIT / DENY</text></g><!--reverse link EV to GRANT--><g class="link" data-entity-1="ent0002" data-entity-2="ent0016" data-link-type="dependency" data-source-line="80" id="lnk41"><path d="M166,221.57 C166,227.3164 166,228.4662 166,234.9814 C166,248.0119 166,262.5044 166,278.1569 C166,340.7669 166,421.9369 166,502.3369 C166,663.1369 166,820.8569 166,820.8569 C166,820.8569 305.54,820.8569 376.95,820.8569" fill="none" id="EV-backto-GRANT" style="stroke:#181818;stroke-width:1;"/><polygon fill="#181818" points="166,216.57,162,225.57,166,221.57,170,225.57,166,216.57" style="stroke:#181818;stroke-width:1;stroke-linejoin:miter;stroke-miterlimit:10;"/><text fill="#000000" font-family="sans-serif" font-size="13" lengthAdjust="spacing" textLength="158.0186" x="7" y="594.6338">PRIORITY_GRANT / WAIT</text></g><!--link RSU to MON--><g class="link" data-entity-1="ent0009" data-entity-2="ent0018" data-link-type="dependency" data-source-line="82" id="lnk42"><path d="M929.246,633.8569 C933.5126,633.8569 939.338,633.8569 946.4956,633.8569 C960.8107,633.8569 980.4543,633.8569 1003.6117,633.8569 C1049.9266,633.8569 1110.2969,633.8569 1170.2063,633.8569 C1290.025,633.8569 1408,633.8569 1408,633.8569 C1408,633.8569 1408,674.9744 1408,717.6981 C1408,723.0386 1408,728.4042 1408,733.7177 C1408,734.0497 1408,729.3816 1408,729.7133" fill="none" id="RSU-to-MON" style="stroke:#181818;stroke-width:1;"/><polygon fill="#181818" points="1408,734.7133,1412,725.7133,1408,729.7133,1404,725.7133,1408,734.7133" style="stroke:#181818;stroke-width:1;stroke-linejoin:miter;stroke-miterlimit:10;"/><text fill="#000000" font-family="sans-serif" font-size="13" lengthAdjust="spacing" textLength="39.9458" x="1213.33" y="629.9238">status</text></g><!--link RSU to FUTURE--><g class="link" data-entity-1="ent0009" data-entity-2="ent0022" data-link-type="dependency" data-source-line="83" id="lnk43"><path d="M929.0313,647.8569 C929.7817,647.8569 930.5826,647.8569 931.4331,647.8569 C938.2373,647.8569 948.2168,647.8569 960.918,647.8569 C986.3203,647.8569 1022.6094,647.8569 1066.1563,647.8569 C1153.25,647.8569 1269.375,647.8569 1385.5,647.8569 C1617.75,647.8569 1850,647.8569 1850,647.8569 C1850,647.8569 1850,685.7419 1850,725.1069 C1850,725.4144 1850,720.722 1850,721.0297" fill="none" id="RSU-to-FUTURE" style="stroke:#181818;stroke-width:1;"/><polygon fill="#181818" points="1850,726.0297,1854,717.0297,1850,721.0297,1846,717.0297,1850,726.0297" style="stroke:#181818;stroke-width:1;stroke-linejoin:miter;stroke-miterlimit:10;"/><text fill="#000000" font-family="sans-serif" font-size="13" lengthAdjust="spacing" textLength="88.0928" x="1371.26" y="643.9238">mapped logic</text></g><?plantuml-src TPLDY-Cu48Rl_XLYBdiAlJGipCvXmUDM4aFYf1t7JKCWQErA8jgMFB8yGrZclsz9iXtRwVIbZUgf3vNghMYk2o3nRZ_xpch8YTzeAMGfcvg4GeEg8TDS2h9cWfsX1A79xbfhA3tl3pBh_yYANMMZoHFPwIi6l5ayBIkY9VbNQYrBadFb8dhr1nSLKwmacImhAJ2qypK04-S21aZ11UXh1KGgVP43GtrXkVp5nPcSM54FNOJCeOQAVFrhSAYO-327V_yvEAnOze6Nsx8yDu6UXxQ-6FAVHqWi6v47KWbGvAltUzA352uyGn9xWVP12sv1leoOBuJL9ANBC5ZHuyf_fp5cmJG3dfQWpY2oQnVT-j3KbZCYq-UGR1MNYklhGSJmeu5Qj_GHZVTyIlhe1_4TM8Rll0EHjuLPjnJTVazgCfx1XGa1nK7S2dGHt9sUqsEmzAE8hYQ-aLGbAqQNYHvS9b2ohl51nfU9qcDCNwVyooQY1x66kiQ7x3XpQCkVFXIEEmcaq4eMnSENCj3JM0Gt7vl24DFt2cHPDe9dp3XWHLOs3Wysw_KOVcsWWJ7qkgTx-c043cB9HDvbf-lbDBKu5JpJ1n5S8FleiqRpLHWaOtQNNI1lkb2xO4bVna32CUkuj2HSqtXCBL1FUamjOZzAxZg-QNHbrqCAYf_QzZne_EViJJ2RVRBT9tUTt_6oAHpxX2L9mRLq3kjDT3zXjlUuhPY63ZhUZTKRuzgi1DEDddgRKZvEnqyWjXazjVX4EFD6DmeVF2ohmkvIMwvrcU-JVKploznljxw_ClV9eR0adaoX09irLm1nijcvQEPhIjaGs2NJdlbsuJiIFpxLY1NvS9Y7h-LM0vdXwXMpVqPo7tptTbJuDtBbKEHOACgUATov-dANCNoSqSc-ZsYqX37D9cY5FZLPyRlDDpLHdEC5ZO9tkqd6HLYz2znGHjppGluQ5c7zPugVBngZMQbYEE5Mcd9BgeNQZ2XI9A3VaHtaEUS-LgTIX7-OmSp9JxSXFHEXnwnGaQdQFKzAV5ElTxxZQdO2ssh2nKbwxhYhpUhPG9ef8xVCR0sYSTGxi0jdDOra3XclpM_tf-8-AVnzDsqRTCnvpfggcm9ty4JU_D3yUw7H-mYY1jh6uIOEa_VZaFOy6xijtcZQbgwRUcHeXVIDbAogi8-5FFFiVm00?></g></svg>