<svg xmlns="http://www.w3.org/2000/svg" xmlns:xlink="http://www.w3.org/1999/xlink" contentStyleType="text/css" data-diagram-type="DESCRIPTION" height="881px" preserveAspectRatio="none" style="width:1818px;height:881px;background:#FFFFFF;" version="1.1" viewBox="0 0 1818 881" width="1818px" zoomAndPan="magnify"><?plantuml 1.2026.7beta1?><defs/><g><g class="title" data-source-line="18"><text fill="#000000" font-family="Arial" font-size="22" font-weight="700" lengthAdjust="spacing" textLength="790.915" x="512.5625" y="35.4209">Cross-Traffic RSU Controller &#8212; UPPAAL &#8594; C &#8594; FreeRTOS + VHDL</text></g><!--cluster ROAD--><g class="cluster" data-qualified-name="ROAD" data-source-line="20" id="ent0001"><rect fill="#EEF7FF" height="315" rx="6" ry="6" style="stroke:#2B3A42;stroke-width:1;" width="415.02" x="12" y="220.7394"/><text fill="#000000" font-family="Arial" font-size="14" font-weight="700" lengthAdjust="spacing" textLength="227.7324" x="105.6438" y="235.7345">Road + Cooperative Vehicles</text></g><!--cluster COMMS--><g class="cluster" data-qualified-name="COMMS" data-source-line="26" id="ent0005"><rect fill="#F8F8F8" height="279" rx="6" ry="6" style="stroke:#2B3A42;stroke-width:1;" width="186.18" x="545.64" y="173.7394"/><text fill="#000000" font-family="Arial" font-size="14" font-weight="700" lengthAdjust="spacing" textLength="171.3906" x="553.0347" y="188.7345">Communication Layer</text></g><!--cluster SW--><g class="cluster" data-qualified-name="SW" data-source-line="32" id="ent0009"><rect fill="#FFF7E6" height="344" rx="6" ry="6" style="stroke:#2B3A42;stroke-width:1;" width="682.46" x="849.43" y="196.7394"/><text fill="#000000" font-family="Arial" font-size="14" font-weight="700" lengthAdjust="spacing" textLength="246.8389" x="1067.2406" y="211.7345">Software Partition &#8212; FreeRTOS</text></g><!--cluster HW--><g class="cluster" data-qualified-name="HW" data-source-line="42" id="ent0014"><rect fill="#EEF9EF" height="187" rx="6" ry="6" style="stroke:#2B3A42;stroke-width:1;" width="935.59" x="868.45" y="580.7394"/><text fill="#000000" font-family="Arial" font-size="14" font-weight="700" lengthAdjust="spacing" textLength="309.9619" x="1181.264" y="595.7345">Hardware Partition &#8212; VHDL / ModelSim</text></g><!--cluster VER--><g class="cluster" data-qualified-name="VER" data-source-line="50" id="ent0018"><rect fill="#F3EFFF" height="220" rx="6" ry="6" style="stroke:#2B3A42;stroke-width:1;" width="342.41" x="467.02" y="647.7394"/><text fill="#000000" font-family="Arial" font-size="14" font-weight="700" lengthAdjust="spacing" textLength="191.0166" x="542.7167" y="662.7345">Verified Safety Contract</text></g><!--entity MAIN--><g class="entity" data-qualified-name="ROAD.MAIN" data-source-line="21" id="ent0002"><rect fill="#E8F3FF" height="52.5938" rx="6" ry="6" style="stroke:#2B3A42;stroke-width:1;" width="367.0195" x="36" y="459.4394"/><text fill="#000000" font-family="Arial" font-size="14" lengthAdjust="spacing" textLength="184.9121" x="46" y="482.4345">Main street: EAST &#8596; WEST</text><text fill="#000000" font-family="Arial" font-size="14" lengthAdjust="spacing" textLength="347.0195" x="46" y="498.7314">V0 emergency, V1 east-straight, V2 west-straight</text></g><!--entity SIDE--><g class="entity" data-qualified-name="ROAD.SIDE" data-source-line="22" id="ent0003"><rect fill="#E8F3FF" height="52.5938" rx="6" ry="6" style="stroke:#2B3A42;stroke-width:1;" width="303.4316" x="67.79" y="371.4394"/><text fill="#000000" font-family="Arial" font-size="14" lengthAdjust="spacing" textLength="205.3105" x="77.79" y="394.4345">Side street: NORTH &#8597; SOUTH</text><text fill="#000000" font-family="Arial" font-size="14" lengthAdjust="spacing" textLength="283.4316" x="77.79" y="410.7314">V3 straight, V4 north-right, V5 south-left</text></g><!--entity CRIT--><g class="entity" data-qualified-name="ROAD.CRIT" data-source-line="23" id="ent0004"><rect fill="#FFECEC" height="52.5938" rx="6" ry="6" style="stroke:#2B3A42;stroke-width:1;" width="289.6641" x="74.68" y="283.4394"/><text fill="#000000" font-family="Arial" font-size="14" lengthAdjust="spacing" textLength="85.5996" x="84.68" y="306.4345">Critical case</text><text fill="#000000" font-family="Arial" font-size="14" lengthAdjust="spacing" textLength="269.6641" x="84.68" y="322.7314">V4 and V5 must NEVER cross together</text></g><!--entity V2I--><g class="entity" data-qualified-name="COMMS.V2I" data-source-line="27" id="ent0006"><rect fill="#FFFFFF" height="52.5938" rx="6" ry="6" style="stroke:#2B3A42;stroke-width:1;" width="143.1768" x="566.64" y="384.4394"/><text fill="#000000" font-family="Arial" font-size="14" lengthAdjust="spacing" textLength="87.8828" x="576.64" y="407.4345">V2I requests</text><text fill="#000000" font-family="Arial" font-size="14" lengthAdjust="spacing" textLength="123.1768" x="576.64" y="423.7314">req[i], emg_req[i]</text></g><!--entity I2V--><g class="entity" data-qualified-name="COMMS.I2V" data-source-line="28" id="ent0007"><rect fill="#FFFFFF" height="52.5938" rx="6" ry="6" style="stroke:#2B3A42;stroke-width:1;" width="142.9443" x="566.75" y="296.4394"/><text fill="#000000" font-family="Arial" font-size="14" lengthAdjust="spacing" textLength="104.2344" x="576.75" y="319.4345">I2V commands</text><text fill="#000000" font-family="Arial" font-size="14" lengthAdjust="spacing" textLength="122.9443" x="576.75" y="335.7314">grant[i], i2v_yield</text></g><!--entity V2V--><g class="entity" data-qualified-name="COMMS.V2V" data-source-line="29" id="ent0008"><rect fill="#FFFFFF" height="52.5938" rx="6" ry="6" style="stroke:#2B3A42;stroke-width:1;" width="129.5391" x="573.46" y="208.4394"/><text fill="#000000" font-family="Arial" font-size="14" lengthAdjust="spacing" textLength="109.5391" x="583.46" y="231.4345">V2V broadcasts</text><text fill="#000000" font-family="Arial" font-size="14" lengthAdjust="spacing" textLength="88.9424" x="583.46" y="247.7314">enter / leave</text></g><!--entity VT--><g class="entity" data-qualified-name="SW.VT" data-source-line="33" id="ent0010"><rect fill="#FFFFFF" height="95.1875" rx="6" ry="6" style="stroke:#2B3A42;stroke-width:1;" width="297.9951" x="873.43" y="421.1494"/><rect fill="#FFFFFF" height="10" style="stroke:#2B3A42;stroke-width:1;" width="15" x="1151.4251" y="426.1494"/><rect fill="#FFFFFF" height="2" style="stroke:#2B3A42;stroke-width:1;" width="4" x="1149.4251" y="428.1494"/><rect fill="#FFFFFF" height="2" style="stroke:#2B3A42;stroke-width:1;" width="4" x="1149.4251" y="432.1494"/><text fill="#000000" font-family="Arial" font-size="14" lengthAdjust="spacing" textLength="145.749" x="888.43" y="454.1445">Vehicle Tasks V0..V5</text><text fill="#000000" font-family="Arial" font-size="14" lengthAdjust="spacing" textLength="92.2715" x="888.43" y="470.4414">UPPAAL FSM:</text><text fill="#000000" font-family="Arial" font-size="14" lengthAdjust="spacing" textLength="257.9951" x="888.43" y="486.7382">Idle &#8594; Wait &#8594; Enter &#8594; Cross &#8594; Leave</text><text fill="#000000" font-family="Arial" font-size="14" lengthAdjust="spacing" textLength="181.7061" x="888.43" y="503.0351">Timers: period, crossTime</text></g><!--entity RSU--><g class="entity" data-qualified-name="SW.RSU" data-source-line="35" id="ent0011"><rect fill="#FFFFFF" height="127.7813" rx="6" ry="6" style="stroke:#2B3A42;stroke-width:1;" width="271.7656" x="886.55" y="258.8494"/><rect fill="#FFFFFF" height="10" style="stroke:#2B3A42;stroke-width:1;" width="15" x="1138.3156" y="263.8494"/><rect fill="#FFFFFF" height="2" style="stroke:#2B3A42;stroke-width:1;" width="4" x="1136.3156" y="265.8494"/><rect fill="#FFFFFF" height="2" style="stroke:#2B3A42;stroke-width:1;" width="4" x="1136.3156" y="269.8494"/><text fill="#000000" font-family="Arial" font-size="14" lengthAdjust="spacing" textLength="139.4668" x="901.55" y="291.8445">RSU Controller Task</text><text fill="#000000" font-family="Arial" font-size="14" lengthAdjust="spacing" textLength="155.9277" x="901.55" y="308.1414">1. read request queue</text><text fill="#000000" font-family="Arial" font-size="14" lengthAdjust="spacing" textLength="185.6436" x="901.55" y="324.4382">2. emergency hold + yield</text><text fill="#000000" font-family="Arial" font-size="14" lengthAdjust="spacing" textLength="105.2188" x="901.55" y="340.7351">3. priority scan</text><text fill="#000000" font-family="Arial" font-size="14" lengthAdjust="spacing" textLength="231.7656" x="901.55" y="357.032">4. ask hardware: safe_to_grant(i)</text><text fill="#000000" font-family="Arial" font-size="14" lengthAdjust="spacing" textLength="205.7275" x="901.55" y="373.3289">5. grant the best safe vehicle</text></g><!--entity STATE--><g class="entity" data-qualified-name="SW.STATE" data-source-line="37" id="ent0012"><path d="M1258.08,432.6494 C1258.08,422.6494 1382.9887,422.6494 1382.9887,422.6494 C1382.9887,422.6494 1507.8974,422.6494 1507.8974,432.6494 L1507.8974,506.8369 C1507.8974,516.8369 1382.9887,516.8369 1382.9887,516.8369 C1382.9887,516.8369 1258.08,516.8369 1258.08,506.8369 L1258.08,432.6494" fill="#FFFFFF" style="stroke:#000000;stroke-width:1;"/><path d="M1258.08,432.6494 C1258.08,442.6494 1382.9887,442.6494 1382.9887,442.6494 C1382.9887,442.6494 1507.8974,442.6494 1507.8974,432.6494" fill="none" style="stroke:#000000;stroke-width:1;"/><text fill="#000000" font-family="Arial" font-size="14" lengthAdjust="spacing" textLength="140.7998" x="1268.08" y="459.6445">Shared State Arrays</text><text fill="#000000" font-family="Arial" font-size="14" lengthAdjust="spacing" textLength="161.0068" x="1268.08" y="475.9414">waiting[N], crossing[N]</text><text fill="#000000" font-family="Arial" font-size="14" lengthAdjust="spacing" textLength="229.8174" x="1268.08" y="492.2382">origin[N], turn[N], emergency[N]</text><text fill="#000000" font-family="Arial" font-size="14" lengthAdjust="spacing" textLength="156.208" x="1268.08" y="508.5351">crossingCount, age[N]</text></g><!--entity PRIO--><g class="entity" data-qualified-name="SW.PRIO" data-source-line="39" id="ent0013"><rect fill="#FFFFFF" height="95.1875" rx="6" ry="6" style="stroke:#2B3A42;stroke-width:1;" width="224.167" x="1270.9" y="292.1494"/><rect fill="#FFFFFF" height="10" style="stroke:#2B3A42;stroke-width:1;" width="15" x="1475.067" y="297.1494"/><rect fill="#FFFFFF" height="2" style="stroke:#2B3A42;stroke-width:1;" width="4" x="1473.067" y="299.1494"/><rect fill="#FFFFFF" height="2" style="stroke:#2B3A42;stroke-width:1;" width="4" x="1473.067" y="303.1494"/><text fill="#000000" font-family="Arial" font-size="14" lengthAdjust="spacing" textLength="174.2754" x="1285.9" y="325.1445">Priority + Fairness Policy</text><text fill="#000000" font-family="Arial" font-size="14" lengthAdjust="spacing" textLength="184.167" x="1285.9" y="341.4414">Emergency &gt; Main &gt; Side</text><text fill="#000000" font-family="Arial" font-size="14" lengthAdjust="spacing" textLength="182.1367" x="1285.9" y="357.7382">Right-turn before left-turn</text><text fill="#000000" font-family="Arial" font-size="14" lengthAdjust="spacing" textLength="175.7588" x="1285.9" y="374.0351">Aging fixes V5 starvation</text></g><!--entity COP--><g class="entity" data-qualified-name="HW.COP" data-source-line="43" id="ent0015"><rect fill="#FFFFFF" height="62.5938" rx="6" ry="6" style="stroke:#2B3A42;stroke-width:1;" width="259.9668" x="892.45" y="643.4394"/><rect fill="#FFFFFF" height="10" style="stroke:#2B3A42;stroke-width:1;" width="15" x="1132.4168" y="648.4394"/><rect fill="#FFFFFF" height="2" style="stroke:#2B3A42;stroke-width:1;" width="4" x="1130.4168" y="650.4394"/><rect fill="#FFFFFF" height="2" style="stroke:#2B3A42;stroke-width:1;" width="4" x="1130.4168" y="654.4394"/><text fill="#000000" font-family="Arial" font-size="14" lengthAdjust="spacing" textLength="208.9268" x="907.45" y="676.4345">Conflict &amp; Safety Coprocessor</text><text fill="#000000" font-family="Arial" font-size="14" lengthAdjust="spacing" textLength="219.9668" x="907.45" y="692.7314">combinational, one-cycle result</text></g><!--entity MATRIX--><g class="entity" data-qualified-name="HW.MATRIX" data-source-line="45" id="ent0016"><rect fill="#FFFFFF" height="78.8906" rx="6" ry="6" style="stroke:#2B3A42;stroke-width:1;" width="222.1367" x="1271.92" y="633.2894"/><rect fill="#FFFFFF" height="10" style="stroke:#2B3A42;stroke-width:1;" width="15" x="1474.0567" y="638.2894"/><rect fill="#FFFFFF" height="2" style="stroke:#2B3A42;stroke-width:1;" width="4" x="1472.0567" y="640.2894"/><rect fill="#FFFFFF" height="2" style="stroke:#2B3A42;stroke-width:1;" width="4" x="1472.0567" y="644.2894"/><text fill="#000000" font-family="Arial" font-size="14" lengthAdjust="spacing" textLength="165.6621" x="1286.92" y="666.2845">15 parallel conflict cells</text><text fill="#000000" font-family="Arial" font-size="14" lengthAdjust="spacing" textLength="182.1367" x="1286.92" y="682.5814">for all vehicle pairs, N = 6</text><text fill="#000000" font-family="Arial" font-size="14" lengthAdjust="spacing" textLength="74.1836" x="1286.92" y="698.8782">conflict(i,j)</text></g><!--entity STATUS--><g class="entity" data-qualified-name="HW.STATUS" data-source-line="47" id="ent0017"><rect fill="#FFFFFF" height="111.4844" rx="6" ry="6" style="stroke:#2B3A42;stroke-width:1;" width="212.1494" x="1567.89" y="631.9994"/><rect fill="#FFFFFF" height="10" style="stroke:#2B3A42;stroke-width:1;" width="15" x="1760.0394" y="636.9994"/><rect fill="#FFFFFF" height="2" style="stroke:#2B3A42;stroke-width:1;" width="4" x="1758.0394" y="638.9994"/><rect fill="#FFFFFF" height="2" style="stroke:#2B3A42;stroke-width:1;" width="4" x="1758.0394" y="642.9994"/><text fill="#000000" font-family="Arial" font-size="14" lengthAdjust="spacing" textLength="126.1094" x="1582.89" y="664.9945">Output status bits</text><text fill="#000000" font-family="Arial" font-size="14" lengthAdjust="spacing" textLength="76.0703" x="1582.89" y="681.2914">noCollision</text><text fill="#000000" font-family="Arial" font-size="14" lengthAdjust="spacing" textLength="172.1494" x="1582.89" y="697.5882">conflictsWithCrossing[N]</text><text fill="#000000" font-family="Arial" font-size="14" lengthAdjust="spacing" textLength="109.8672" x="1582.89" y="713.8851">safe_to_grant(i)</text><text fill="#000000" font-family="Arial" font-size="14" lengthAdjust="spacing" textLength="103.9951" x="1582.89" y="730.182">collision_alarm</text></g><!--entity QRY--><g class="entity" data-qualified-name="VER.QRY" data-source-line="51" id="ent0019"><rect fill="#FFFFFF" height="134.0781" rx="6" ry="6" style="stroke:#2B3A42;stroke-width:1;" width="294.415" x="491.02" y="709.6994"/><text fill="#000000" font-family="Arial" font-size="14" lengthAdjust="spacing" textLength="115.5547" x="501.02" y="732.6945">A[] not deadlock</text><text fill="#000000" font-family="Arial" font-size="14" lengthAdjust="spacing" textLength="111.9453" x="501.02" y="748.9914">A[] noCollision()</text><text fill="#000000" font-family="Arial" font-size="14" lengthAdjust="spacing" textLength="219.2969" x="501.02" y="765.2882">A[] crossingCount &#8804; MM_MODE</text><text fill="#000000" font-family="Arial" font-size="14" lengthAdjust="spacing" textLength="245.7109" x="501.02" y="781.5851">A[] not(crossing[4] &amp;&amp; crossing[5])</text><text fill="#000000" font-family="Arial" font-size="14" lengthAdjust="spacing" textLength="195.6309" x="501.02" y="797.882">E&lt;&gt; V0 emergency crosses</text><text fill="#000000" font-family="Arial" font-size="14" lengthAdjust="spacing" textLength="274.415" x="501.02" y="814.1789">E&lt;&gt; V1 &amp;&amp; V2 cross together in M/M/2</text><text fill="#000000" font-family="Arial" font-size="14" lengthAdjust="spacing" textLength="257.4482" x="501.02" y="830.4757">New: V5 bounded waiting with aging</text></g><g class="entity" data-qualified-name="GMN37" data-source-line="80" id="ent0038"><path d="M859.48,132.6094 L859.48,172.875 L1185.377,172.875 L1185.377,142.6094 L1175.377,132.6094 L859.48,132.6094" fill="#FFFFFF" style="stroke:#000000;stroke-width:1;"/><path d="M1175.377,132.6094 L1175.377,142.6094 L1185.377,142.6094 L1175.377,132.6094" fill="#FFFFFF" style="stroke:#000000;stroke-width:1;"/><text fill="#000000" font-family="Arial" font-size="13" lengthAdjust="spacing" textLength="266.0239" x="865.48" y="149.6763">Software keeps the flexible control logic:</text><text fill="#000000" font-family="Arial" font-size="13" lengthAdjust="spacing" textLength="304.897" x="865.48" y="164.8091">messages, priority, aging, timers, queue state.</text></g><g class="entity" data-qualified-name="GMN40" data-source-line="85" id="ent0041"><path d="M846.79,57.6094 L846.79,97.875 L1198.0776,97.875 L1198.0776,67.6094 L1188.0776,57.6094 L846.79,57.6094" fill="#FFFFFF" style="stroke:#000000;stroke-width:1;"/><path d="M1188.0776,57.6094 L1188.0776,67.6094 L1198.0776,67.6094 L1188.0776,57.6094" fill="#FFFFFF" style="stroke:#000000;stroke-width:1;"/><text fill="#000000" font-family="Arial" font-size="13" lengthAdjust="spacing" textLength="330.2876" x="852.79" y="74.6763">Hardware keeps the repeated parallel safety logic:</text><text fill="#000000" font-family="Arial" font-size="13" lengthAdjust="spacing" textLength="305.8301" x="852.79" y="89.8091">conflict matrix, capacity check, collision alarm.</text></g><!--link MAIN to V2I--><g class="link" data-entity-1="ent0002" data-entity-2="ent0006" data-link-type="dependency" data-source-line="54" id="lnk20"><path d="M388.04,459.1094 C388.04,444.9894 388.04,430.5394 388.04,430.5394 C388.04,430.5394 487.29,430.5394 561.2,430.5394" fill="none" id="MAIN-to-V2I" style="stroke:#000000;stroke-width:1;"/><polygon fill="#000000" points="566.2,430.5394,557.2,426.5394,561.2,430.5394,557.2,434.5394,566.2,430.5394" style="stroke:#000000;stroke-width:1;stroke-linejoin:miter;stroke-miterlimit:10;"/><text fill="#000000" font-family="Arial" font-size="13" lengthAdjust="spacing" textLength="185.5928" x="276.83" y="443.6063">normal / emergency request</text></g><!--link SIDE to V2I--><g class="link" data-entity-1="ent0003" data-entity-2="ent0006" data-link-type="dependency" data-source-line="55" id="lnk21"><path d="M371.56,404.2394 C438,404.2394 507.78,404.2394 561.21,404.2394" fill="none" id="SIDE-to-V2I" style="stroke:#000000;stroke-width:1;"/><polygon fill="#000000" points="566.21,404.2394,557.21,400.2394,561.21,404.2394,557.21,408.2394,566.21,404.2394" style="stroke:#000000;stroke-width:1;stroke-linejoin:miter;stroke-miterlimit:10;"/><text fill="#000000" font-family="Arial" font-size="13" lengthAdjust="spacing" textLength="99.6138" x="469.89" y="417.3063">normal request</text></g><!--link V2I to RSU--><g class="link" data-entity-1="ent0006" data-entity-2="ent0011" data-link-type="dependency" data-source-line="57" id="lnk22"><path d="M639.04,383.9594 C639.04,380.3994 639.04,377.9394 639.04,377.9394 C639.04,377.9394 770.99,377.9394 881.18,377.9394" fill="none" id="V2I-to-RSU" style="stroke:#000000;stroke-width:1;"/><polygon fill="#000000" points="886.18,377.9394,877.18,373.9394,881.18,377.9394,877.18,381.9394,886.18,377.9394" style="stroke:#000000;stroke-width:1;stroke-linejoin:miter;stroke-miterlimit:10;"/><text fill="#000000" font-family="Arial" font-size="13" lengthAdjust="spacing" textLength="150.2935" x="608.61" y="374.0063">FreeRTOS queue event</text></g><!--link RSU to PRIO--><g class="link" data-entity-1="ent0011" data-entity-2="ent0013" data-link-type="dependency" data-source-line="58" id="lnk23"><path d="M1158.74,323.6394 C1195.63,323.6394 1230.14,323.6394 1265.56,323.6394" fill="none" id="RSU-to-PRIO" style="stroke:#000000;stroke-width:1;"/><polygon fill="#000000" points="1270.56,323.6394,1261.56,319.6394,1265.56,323.6394,1261.56,327.6394,1270.56,323.6394" style="stroke:#000000;stroke-width:1;stroke-linejoin:miter;stroke-miterlimit:10;"/><text fill="#000000" font-family="Arial" font-size="13" lengthAdjust="spacing" textLength="114.7275" x="1099.65" y="336.7063">choose candidate</text></g><!--link RSU to STATE--><g class="link" data-entity-1="ent0011" data-entity-2="ent0012" data-link-type="dependency" data-source-line="59" id="lnk24"><path d="M1158.63,355.1394 C1213.93,355.1394 1265.04,355.1394 1265.04,355.1394 C1265.04,355.1394 1265.04,385.8994 1265.04,417.4594" fill="none" id="RSU-to-STATE" style="stroke:#000000;stroke-width:1;"/><polygon fill="#000000" points="1265.04,422.4594,1269.04,413.4594,1265.04,417.4594,1261.04,413.4594,1265.04,422.4594" style="stroke:#000000;stroke-width:1;stroke-linejoin:miter;stroke-miterlimit:10;"/><text fill="#000000" font-family="Arial" font-size="13" lengthAdjust="spacing" textLength="127.9751" x="1117.5" y="368.2063">update queue/state</text></g><!--link STATE to COP--><g class="link" data-entity-1="ent0012" data-entity-2="ent0015" data-link-type="dependency" data-source-line="61" id="lnk25"><path d="M1265.04,516.8394 C1265.04,574.4194 1265.04,664.3094 1265.04,664.3094 C1265.04,664.3094 1215.17,664.3094 1157.62,664.3094" fill="none" id="STATE-to-COP" style="stroke:#000000;stroke-width:1;"/><polygon fill="#000000" points="1152.62,664.3094,1161.62,668.3094,1157.62,664.3094,1161.62,660.3094,1152.62,664.3094" style="stroke:#000000;stroke-width:1;stroke-linejoin:miter;stroke-miterlimit:10;"/><text fill="#000000" font-family="Arial" font-size="13" lengthAdjust="spacing" textLength="101.5879" x="1105.3244" y="627.8563">mirror registers</text><text fill="#000000" font-family="Arial" font-size="13" lengthAdjust="spacing" textLength="216.1567" x="1048.04" y="642.9891">origin, turn, emergency, crossing</text></g><!--link RSU to COP--><g class="link" data-entity-1="ent0011" data-entity-2="ent0015" data-link-type="dependency" data-source-line="62" id="lnk26"><path d="M886.1,381.1894 C874.48,381.1894 867.04,381.1894 867.04,381.1894 C867.04,381.1894 867.04,658.5894 867.04,658.5894 C867.04,658.5894 872.06,658.5894 887.01,658.5894" fill="none" id="RSU-to-COP" style="stroke:#000000;stroke-width:1;"/><polygon fill="#000000" points="892.01,658.5894,883.01,654.5894,887.01,658.5894,883.01,662.5894,892.01,658.5894" style="stroke:#000000;stroke-width:1;stroke-linejoin:miter;stroke-miterlimit:10;"/><text fill="#000000" font-family="Arial" font-size="13" lengthAdjust="spacing" textLength="160.0371" x="706.04" y="535.9163">candidate i + MM_MODE</text></g><!--link COP to MATRIX--><g class="link" data-entity-1="ent0015" data-entity-2="ent0016" data-link-type="dependency" data-source-line="64" id="lnk27"><path d="M1152.85,685.1694 C1191.77,685.1694 1229.04,685.1694 1266.62,685.1694" fill="none" id="COP-to-MATRIX" style="stroke:#000000;stroke-width:1;"/><polygon fill="#000000" points="1271.62,685.1694,1262.62,681.1694,1266.62,685.1694,1262.62,689.1694,1271.62,685.1694" style="stroke:#000000;stroke-width:1;stroke-linejoin:miter;stroke-miterlimit:10;"/><text fill="#000000" font-family="Arial" font-size="13" lengthAdjust="spacing" textLength="111.9727" x="1100.24" y="698.2363">evaluate all pairs</text></g><!--link MATRIX to STATUS--><g class="link" data-entity-1="ent0016" data-entity-2="ent0017" data-link-type="dependency" data-source-line="66" id="lnk28"><path d="M1494.24,672.7394 C1518.3,672.7394 1538.7,672.7394 1562.57,672.7394" fill="none" id="MATRIX-to-STATUS" style="stroke:#000000;stroke-width:1;"/><polygon fill="#000000" points="1567.57,672.7394,1558.57,668.7394,1562.57,672.7394,1558.57,676.7394,1567.57,672.7394" style="stroke:#000000;stroke-width:1;stroke-linejoin:miter;stroke-miterlimit:10;"/><text fill="#000000" font-family="Arial" font-size="13" lengthAdjust="spacing" textLength="93.8945" x="1531.9" y="685.8063">conflict matrix</text></g><!--link STATUS to RSU--><g class="link" data-entity-1="ent0017" data-entity-2="ent0011" data-link-type="dependency" data-source-line="67" id="lnk29"><path d="M1639.04,631.7094 C1639.04,518.9994 1639.04,275.4994 1639.04,275.4994 C1639.04,275.4994 1345.1,275.4994 1163.51,275.4994" fill="none" id="STATUS-to-RSU" style="stroke:#000000;stroke-width:1;"/><polygon fill="#000000" points="1158.51,275.4994,1167.51,279.4994,1163.51,275.4994,1167.51,271.4994,1158.51,275.4994" style="stroke:#000000;stroke-width:1;stroke-linejoin:miter;stroke-miterlimit:10;"/><text fill="#000000" font-family="Arial" font-size="13" lengthAdjust="spacing" textLength="102.0195" x="1473.89" y="288.5663">safe_to_grant(i)</text></g><!--link STATUS to VER--><g class="link" data-entity-1="ent0017" data-entity-2="ent0018" data-link-type="dependency" data-source-line="68" id="lnk30"><path d="M1710.04,631.7994 C1710.04,624.9794 1710.04,620.3694 1710.04,620.3694 C1710.04,620.3694 639.04,620.3694 639.04,620.3694 C639.04,620.3694 639.04,633.1244 639.04,646.2781 C639.04,646.6892 639.04,642.1006 639.04,642.5121" fill="none" id="STATUS-to-VER" style="stroke:#000000;stroke-width:1;"/><polygon fill="#000000" points="639.04,647.5121,643.04,638.5121,639.04,642.5121,635.04,638.5121,639.04,647.5121" style="stroke:#000000;stroke-width:1;stroke-linejoin:miter;stroke-miterlimit:10;"/><text fill="#000000" font-family="Arial" font-size="13" lengthAdjust="spacing" textLength="116.7397" x="1036.15" y="616.4363">hardware monitor</text></g><!--link RSU to I2V--><g class="link" data-entity-1="ent0011" data-entity-2="ent0007" data-link-type="dependency" data-source-line="70" id="lnk31"><path d="M886.16,322.7394 C826.72,322.7394 764.46,322.7394 715.01,322.7394" fill="none" id="RSU-to-I2V" style="stroke:#000000;stroke-width:1;"/><polygon fill="#000000" points="710.01,322.7394,719.01,326.7394,715.01,322.7394,719.01,318.7394,710.01,322.7394" style="stroke:#000000;stroke-width:1;stroke-linejoin:miter;stroke-miterlimit:10;"/><text fill="#000000" font-family="Arial" font-size="13" lengthAdjust="spacing" textLength="165.0962" x="632.09" y="335.8063">grant or emergency yield</text></g><!--link I2V to ROAD--><g class="link" data-entity-1="ent0007" data-entity-2="ent0001" data-link-type="dependency" data-source-line="71" id="lnk32"><path d="M617.04,296.0794 C617.04,285.5794 617.04,275.9694 617.04,275.9694 C617.04,275.9694 592.2275,275.9694 555.0088,275.9694 C536.3994,275.9694 514.6884,275.9694 491.4267,275.9694 C479.7959,275.9694 467.7773,275.9694 455.5649,275.9694 C449.4587,275.9694 443.304,275.9694 437.1251,275.9694 C434.0357,275.9694 435.9402,275.9694 432.8417,275.9694" fill="none" id="I2V-to-ROAD" style="stroke:#000000;stroke-width:1;"/><polygon fill="#000000" points="427.8417,275.9694,436.8417,279.9694,432.8417,275.9694,436.8417,271.9694,427.8417,275.9694" style="stroke:#000000;stroke-width:1;stroke-linejoin:miter;stroke-miterlimit:10;"/><text fill="#000000" font-family="Arial" font-size="13" lengthAdjust="spacing" textLength="73.5757" x="415.64" y="289.0363">pass / yield</text></g><!--link ROAD to V2V--><g class="link" data-entity-1="ent0001" data-entity-2="ent0008" data-link-type="dependency" data-source-line="73" id="lnk33"><path d="M427.6868,247.7394 C428.2819,247.7394 428.877,247.7394 429.4721,247.7394 C434.2327,247.7394 438.993,247.7394 443.7429,247.7394 C453.2429,247.7394 462.7018,247.7394 472.0409,247.7394 C509.3975,247.7394 539.8375,247.7394 568.32,247.7394" fill="none" id="ROAD-to-V2V" style="stroke:#000000;stroke-width:1;"/><polygon fill="#000000" points="573.32,247.7394,564.32,243.7394,568.32,247.7394,564.32,251.7394,573.32,247.7394" style="stroke:#000000;stroke-width:1;stroke-linejoin:miter;stroke-miterlimit:10;"/><text fill="#000000" font-family="Arial" font-size="13" lengthAdjust="spacing" textLength="151.4741" x="244.75" y="260.8063">enter / leave broadcast</text></g><!--link V2V to RSU--><g class="link" data-entity-1="ent0008" data-entity-2="ent0011" data-link-type="dependency" data-source-line="74" id="lnk34"><path d="M660.04,261.3394 C660.04,265.5294 660.04,268.5094 660.04,268.5094 C660.04,268.5094 778.42,268.5094 881.2,268.5094" fill="none" id="V2V-to-RSU" style="stroke:#000000;stroke-width:1;"/><polygon fill="#000000" points="886.2,268.5094,877.2,264.5094,881.2,268.5094,877.2,272.5094,886.2,268.5094" style="stroke:#000000;stroke-width:1;stroke-linejoin:miter;stroke-miterlimit:10;"/><text fill="#000000" font-family="Arial" font-size="13" lengthAdjust="spacing" textLength="201.5063" x="567.54" y="281.5763">leave event updates crossing[]</text></g><!--link VER to RSU--><g class="link" data-entity-1="ent0018" data-entity-2="ent0011" data-link-type="dependency" data-source-line="76" id="lnk35"><path d="M529.04,647.0492 C529.04,641.3354 529.04,634.889 529.04,627.8566 C529.04,599.7269 529.04,562.2206 529.04,524.7144 C529.04,449.7019 529.04,374.6894 529.04,374.6894 C529.04,374.6894 735.26,374.6894 881.31,374.6894" fill="none" id="VER-to-RSU" style="stroke:#000000;stroke-width:1;stroke-dasharray:7,7;"/><polygon fill="#000000" points="886.31,374.6894,877.31,370.6894,881.31,374.6894,877.31,378.6894,886.31,374.6894" style="stroke:#000000;stroke-width:1;stroke-linejoin:miter;stroke-miterlimit:10;"/><text fill="#000000" font-family="Arial" font-size="13" lengthAdjust="spacing" textLength="127.0039" x="401.04" y="396.3963">software assertions</text></g><!--link VER to COP--><g class="link" data-entity-1="ent0018" data-entity-2="ent0015" data-link-type="dependency" data-source-line="77" id="lnk36"><path d="M810.1319,674.7394 C810.5691,674.7394 811.0065,674.7394 811.444,674.7394 C812.319,674.7394 813.1946,674.7394 814.0706,674.7394 C815.8226,674.7394 817.5764,674.7394 819.3314,674.7394 C822.8415,674.7394 826.3565,674.7394 829.8717,674.7394 C836.9021,674.7394 843.9332,674.7394 850.9276,674.7394 C864.9163,674.7394 873.7575,674.7394 887.15,674.7394" fill="none" id="VER-to-COP" style="stroke:#000000;stroke-width:1;stroke-dasharray:7,7;"/><polygon fill="#000000" points="892.15,674.7394,883.15,670.7394,887.15,674.7394,883.15,678.7394,892.15,674.7394" style="stroke:#000000;stroke-width:1;stroke-linejoin:miter;stroke-miterlimit:10;"/><text fill="#000000" font-family="Arial" font-size="13" lengthAdjust="spacing" textLength="195.3682" x="569.5" y="687.8063">independent HW safety check</text></g><!--link SW to GMN37--><g class="link" data-entity-1="ent0009" data-entity-2="ent0038" data-link-type="association" data-source-line="80" id="lnk39"><path d="M1023.04,196.527 C1023.04,193.9325 1023.04,191.2754 1023.04,188.6155 C1023.04,183.2956 1023.04,177.9644 1023.04,173.0994" fill="none" id="SW-GMN37" style="stroke:#000000;stroke-width:1;stroke-dasharray:7,7;"/></g><!--link HW to GMN40--><g class="link" data-entity-1="ent0014" data-entity-2="ent0041" data-link-type="association" data-source-line="85" id="lnk42"><path d="M867.9139,607.7394 C867.7302,607.7394 867.5481,607.7394 867.3675,607.7394 C867.0063,607.7394 866.6513,607.7394 866.3027,607.7394 C865.6055,607.7394 864.9337,607.7394 864.2885,607.7394 C862.998,607.7394 861.8138,607.7394 860.7449,607.7394 C856.4695,607.7394 854.04,607.7394 854.04,607.7394 C854.04,607.7394 854.04,195.5894 854.04,98.1894" fill="none" id="HW-GMN40" style="stroke:#000000;stroke-width:1;stroke-dasharray:7,7;"/></g><?plantuml-src bLRTRXf75BxVfpYDfIXHC8wndQIejKJm8YCPux8OjmgMDUmECFKoGsS7EwYgrAjAlQtID-YJvKdwdTaVCEvDPGdjp3bpVh_p7N_Zvd8XQPaAfOFiNkcbi6914n7VpwnPwQHjKcFfSQwSt99dSv6OHwLdD1LfjYr9v5IiKjSnsbqAM6vP9T8jUQgqTEkb96FTt0Ifd3foXgoQpHqboihOAQE3hHTBn29cCdBhL1BBXPwbsowhE_er8FfeR29j7lPUu-DHwxY1sq6UYzNIqc4Z-6thUMmMIwEbTl_dUU2KWyEsDLcsFxHYEbKn3Q9hQYDnQz8KYbz__qBNLrUjrWLz_UClQllVZfLoCEn7z8P6vsSNGR29_iN0Y0JtRMEMqWgd7YIDv5p5gSnUaCXeq6-TqLuOTjvtEZxOhRSzD90o1-kkIM4h6iBR5xe9e-5OZzuIccndKiVh6eqEIOhCxKDPSDLnqw17kNNZdVLQtKiu-z0vwdIUkefK8YjNb_t1y1o-_gQeVpqyXxCZsh9yJ9eRlM-BymbbPeKpzzsxYRfduN-xQLlbL2nIYaKcOVUOX4xOmcALEReCH-60Ogu_y3EJmB7r1jk3xf3sEfsm7RQvKTiMpMAnqh394ACBiIwVz7kz26y-yDzkOKUDBew_h52WRApnzKdTrb3FsLt-xIr0wUchRcF4m5eWPBoQMQ6TVwSQ3tTh9TF4FuFMhhCHJInWW9pP7L0981rGAiM3B3oDEAjYAD0CCtMFmagw4XQOvCGOToNCyXhVS44wxyDtFhaDu5yKyAAXoEvX-sszFZePwmAqdQZN7Ejk0ZaZzqOevpz27vI7j2y_VrrmW6CzLC1PrYJWLvcablU7B_FOXy5Jzpi3mr6CzM4T5S4W54Kd_AvWkb7VW9Zc9kL9yPKSwwCwBU4FU5bJ5WizriTr-BkdkR095wT9cPZAEsVkV2TUgTTZVL8dVo0WXoRiY7Ne8Qz8Fc_HDGUS22Scm22A3OCoeSW9nyncnHezUaHTm8IVBc-BVFF36C1NCwNzlLlP_ADAmMkKwctG2wO33SLrth9XQnZkLEkgpF4DTOG25w7sLoPLyNgimweqf-Ifu9HuJCTwm8Etp_wHvDG0A3nw_cAiMpDFuUgppFneEc4V_73u6Au6tVuJh9qNvTp16lCOCDepYKmZjV1lpsyyKNqRTdOXXtvF4REZbnIXu4YdRPRMnCZ6M9J4B2PA-o14MYCyse_NiMV-37kbcDUhdT8SdX2JEL04kYWTn39DqHyaJP2KdOMYibcDBkbxUiV-SkrNglRpwuBuXeFkZpiE-YktN3cka5jbD54ydDfWJQGgGwWREzcDSlFsDWoUGoykdzs9LDX5rV3hQ8UmHXYZgMB4bPN2h8WuhmBptrxdAEmyNmQjJxVWNUnJp55gOWnLVbF5--frVlK4WFJrpt-erxlhzS_2yeLxLK7w-9PUljmW_EGMDiBlJcbxk-HYcHMIGtw1xVAKfWdmx1tq3XfZVIaVcuoy2UzNv5dC4ZsYY1W7VFfKVnZyn9NnAsb__vJfbfgyMHPO3mTRxWlE2FnMUQPPIWE-PIdpJtEpaZtJa7n0nmCMiGeF0NJYkJ5W091Bei07ifBxGON2QidNkOa3XeaCWbp6Ma0iT1RAMe3HofdAGA5PIH4vFzIsbtHPvifFRg7oJmeiKFGg25Z8IZbqeISVHBfYDGQ-1pnNpmlBeAyZjbVEoa8ugpu7XM1JcrtmRcim09iLnzB2QEMC3QgGUGSs2v95sfikUTeEMEmTyNyrM1a243aeP86_p1l8HfximSs634Qb3HziBlNzA_gHRV1wYxOZu7gzIgtSd70iBHDELcdarLR0v5BY1_P0Q5a-XF5SnlT1WDb09COvio0pnOuDgbLyB-KoytjbcihFQeAHZFCjHwcPgRWPBC1se5JGKBcuQZdS0GM_Gci563sIwW62u66KpzoUtmGLAs_SMeIDTyc658lO2_SxRGVS14XUbSdXN185UORQ1F0l?></g></svg>